<?xml version="1.0" encoding="UTF-8" standalone="no"?>
<!-- Created with Inkscape (http://www.inkscape.org/) -->

<svg
   xmlns:dc="http://purl.org/dc/elements/1.1/"
   xmlns:cc="http://creativecommons.org/ns#"
   xmlns:rdf="http://www.w3.org/1999/02/22-rdf-syntax-ns#"
   xmlns:svg="http://www.w3.org/2000/svg"
   xmlns="http://www.w3.org/2000/svg"
   xmlns:sodipodi="http://sodipodi.sourceforge.net/DTD/sodipodi-0.dtd"
   xmlns:inkscape="http://www.inkscape.org/namespaces/inkscape"
   width="210mm"
   height="297mm"
   viewBox="0 0 210 297"
   version="1.1"
   id="svg8"
   inkscape:version="0.92.3 (2405546, 2018-03-11)"
   sodipodi:docname="icon.svg">
  <defs
     id="defs2" />
  <sodipodi:namedview
     id="base"
     pagecolor="#ffffff"
     bordercolor="#666666"
     borderopacity="1.0"
     inkscape:pageopacity="0.0"
     inkscape:pageshadow="2"
     inkscape:zoom="0.35"
     inkscape:cx="-108.57143"
     inkscape:cy="560"
     inkscape:document-units="mm"
     inkscape:current-layer="layer1"
     showgrid="false"
     inkscape:window-width="1366"
     inkscape:window-height="719"
     inkscape:window-x="0"
     inkscape:window-y="24"
     inkscape:window-maximized="1" />
  <metadata
     id="metadata5">
    <rdf:RDF>
      <cc:Work
         rdf:about="">
        <dc:format>image/svg+xml</dc:format>
        <dc:type
           rdf:resource="http://purl.org/dc/dcmitype/StillImage" />
        <dc:title />
      </cc:Work>
    </rdf:RDF>
  </metadata>
  <g
     inkscape:label="Layer 1"
     inkscape:groupmode="layer"
     id="layer1">
    <path
       style="fill:#000000;stroke-width:0.53169698"
       d="M 3.2748126,160.30324 V 96.499596 h 4.5520026 4.5520028 l -0.355271,-2.369192 c -0.903218,-6.023079 3.707504,-12.8912 9.455177,-14.084429 1.619066,-0.33611 3.520012,-0.466477 4.224324,-0.289717 1.225874,0.307692 1.308688,0.155545 1.938867,-3.563719 2.841181,-16.768052 14.410781,-29.87946 30.948121,-35.072366 3.529818,-1.108397 4.969149,-1.243634 13.007845,-1.222195 8.305831,0.02217 9.376286,0.137192 13.199701,1.418466 l 4.160841,1.394348 3.814614,-2.034207 c 4.841517,-2.581832 8.606983,-3.398097 14.297723,-3.099408 5.82965,0.305977 11.22827,2.730356 15.80855,7.099192 l 3.11509,2.971284 4.01651,-0.829627 c 5.78273,-1.194469 15.08591,-1.089872 20.32599,0.22848 5.62094,1.414211 12.98262,5.13 17.29526,8.729735 5.9425,4.960187 11.47122,13.213078 13.97794,20.865298 l 0.89727,2.739076 3.29776,0.575441 c 7.41826,1.294462 15.39592,7.101833 18.68439,13.60137 0.81874,1.618198 1.81898,2.94217 2.22276,2.94217 0.62032,0 0.73416,9.892334 0.73416,63.803644 v 63.80362 H 105.36062 3.2748126 Z M 198.93929,202.83901 V 190.07827 H 169.16425 139.38924 V 160.30324 130.5282 h 29.77501 29.77504 V 117.76748 105.00675 H 105.36062 11.781978 v 17.01431 17.0143 h 18.217477 18.217516 l 7.512714,-7.57669 c 5.392965,-5.43887 7.690377,-8.13894 8.142368,-9.56942 1.295948,-4.10146 7.287502,-8.37534 11.741418,-8.37534 5.568906,0 11.666404,5.37552 12.514782,11.03298 1.134699,7.56667 -6.432775,15.32471 -13.944003,14.29517 -2.808567,-0.38494 -4.761541,-1.3387 -6.974875,-3.40628 l -1.650613,-1.5419 -6.809166,6.82432 -6.809165,6.82432 H 31.861194 11.781978 v 4.25358 4.25356 h 38.778043 c 38.200701,0 38.783033,-0.0161 39.112701,-1.05439 0.184077,-0.57991 1.406233,-2.12597 2.715925,-3.43566 7.132653,-7.13265 18.370763,-3.8098 21.029963,6.21807 2.16509,8.16456 -6.67256,17.0022 -14.837108,14.83711 -3.373561,-0.89459 -6.218777,-2.93448 -7.985384,-5.72512 l -1.452233,-2.29403 -38.680966,-0.02 -38.680941,-0.0201 v 4.25356 4.25358 h 20.079216 20.079237 l 6.809165,6.82432 6.809166,6.82432 1.650613,-1.5419 c 5.161826,-4.82187 12.037029,-4.64012 17.130007,0.45288 5.874255,5.87423 4.882395,14.60177 -2.191952,19.28762 -4.957795,3.28392 -10.867945,2.57656 -15.272324,-1.82781 -1.305374,-1.30537 -2.656745,-3.27014 -3.003053,-4.36616 -0.451991,-1.43049 -2.749403,-4.13056 -8.142368,-9.56942 l -7.512714,-7.57675 H 29.999455 11.781978 v 17.01432 17.01428 h 93.578642 93.57867 z M 78.775784,197.52203 c 0.708933,-0.70892 1.063401,-1.77233 1.063401,-3.19018 0,-2.83573 -1.417868,-4.25358 -4.253587,-4.25358 -2.835714,0 -4.253562,1.41785 -4.253562,4.25358 0,1.41785 0.354466,2.48126 1.06338,3.19018 0.708934,0.70893 1.772335,1.0634 3.190182,1.0634 1.417872,0 2.481273,-0.35447 3.190186,-1.0634 z M 198.93929,160.30324 v -21.26788 h -25.52145 -25.52145 v 21.26788 21.26787 h 25.52145 25.52145 z M 165.77928,172.516 c -4.05886,-1.21591 -7.73929,-5.20997 -8.92657,-9.6872 -2.16507,-8.16455 6.67256,-17.00219 14.8371,-14.83712 5.10886,1.35478 9.29664,5.7795 10.01709,10.58383 1.26812,8.45636 -7.78483,16.37986 -15.92762,13.94049 z m 6.57516,-9.02258 c 0.70892,-0.70893 1.0634,-1.77231 1.0634,-3.19018 0,-1.41786 -0.35448,-2.48126 -1.0634,-3.19018 -0.70892,-0.70893 -1.77232,-1.0634 -3.19019,-1.0634 -1.41784,0 -2.48124,0.35447 -3.19017,1.0634 -0.70893,0.70892 -1.0634,1.77232 -1.0634,3.19018 0,1.41787 0.35447,2.48125 1.0634,3.19018 0.70893,0.70894 1.77233,1.0634 3.19017,1.0634 1.41787,0 2.48127,-0.35446 3.19019,-1.0634 z m -68.0572,0 c 0.70893,-0.70893 1.06338,-1.77231 1.06338,-3.19018 0,-2.83572 -1.41785,-4.25358 -4.25356,-4.25358 -2.835724,0 -4.253581,1.41786 -4.253581,4.25358 0,1.41787 0.354459,2.48125 1.063398,3.19018 0.708939,0.70894 1.772316,1.0634 3.190183,1.0634 1.41785,0 2.48124,-0.35446 3.19018,-1.0634 z M 78.775784,129.46483 c 0.708933,-0.70894 1.063401,-1.77234 1.063401,-3.19019 0,-2.83572 -1.417868,-4.25358 -4.253587,-4.25358 -2.835714,0 -4.253562,1.41786 -4.253562,4.25358 0,1.41785 0.354466,2.48125 1.06338,3.19019 0.708934,0.7089 1.772335,1.06337 3.190182,1.06337 1.417872,0 2.481273,-0.35447 3.190186,-1.06337 z M 28.231783,95.834971 c -0.01808,-0.365532 -0.327962,-2.219815 -0.688738,-4.120643 -0.649653,-3.422786 -0.673907,-3.457557 -2.521119,-3.614822 -4.03448,-0.343453 -6.169339,3.771954 -3.630819,6.999144 0.948655,1.20602 1.503495,1.400946 3.987718,1.400946 1.971623,0 2.875364,-0.210539 2.852958,-0.664625 z m 28.330202,-1.063377 c -0.567963,-0.950428 -1.465936,-2.48778 -1.995496,-3.416357 -1.059966,-1.858624 -1.133615,-1.656421 2.074049,-5.695658 l 1.525279,-1.920707 -1.525279,-1.906869 c -3.403657,-4.255247 -3.895398,-2.588098 5.601056,-18.989636 4.707302,-8.130112 8.558732,-14.889305 8.558732,-15.020445 0,-0.539172 -4.776191,-0.183278 -7.730812,0.575893 -13.30536,3.419137 -24.100313,14.208726 -27.127941,27.114454 -1.066275,4.545186 -0.793135,14.000114 0.525661,18.195927 l 0.877376,2.7914 h 10.125025 10.125004 z m 11.095905,0.753813 c -0.286764,-0.535811 -0.937903,-1.313416 -1.447006,-1.728013 -0.818817,-0.666852 -0.808949,-0.554452 0.08561,0.9742 1.04835,1.791433 2.282402,2.474742 1.361399,0.753813 z m 8.709669,-0.753813 c 0.894562,-1.528652 0.904449,-1.641052 0.08561,-0.9742 -1.122482,0.914137 -2.136629,2.702202 -1.532614,2.702202 0.239681,0 0.890841,-0.777605 1.447006,-1.728002 z m 29.829261,-1.063398 c 1.31879,-4.195813 1.59194,-13.650741 0.52567,-18.195927 C 103.69486,62.606541 92.8999,51.816952 79.594562,48.397815 76.63992,47.638544 71.863726,47.28275 71.863726,47.821922 c 0,0.131217 3.851428,6.890333 8.558735,15.020445 9.496453,16.401538 9.004714,14.734389 5.601055,18.989636 l -1.52528,1.906869 1.52528,1.920707 c 3.207665,4.039237 3.134035,3.837034 2.07407,5.695658 -0.529579,0.928577 -1.427553,2.465929 -1.995496,3.416357 l -1.032675,1.728002 h 10.125004 10.125021 z m 17.7732,1.196309 c 0,-1.506464 -0.11816,-1.595092 -2.12678,-1.595092 h -2.12681 v -4.253561 -4.253579 h 2.12681 2.12678 v -5.848668 -5.848657 h -2.12678 -2.12681 v -4.253584 -4.253583 h 4.51943 4.51944 v -2.12678 -2.12678 h 4.25358 4.25356 v 2.12678 2.12678 h 2.1268 2.12678 v -2.12678 -2.12678 h 4.25358 4.25356 v 2.600834 c 0,2.281255 0.15253,2.6391 1.24064,2.91222 0.68233,0.171215 2.39168,1.32459 3.79852,2.562944 5.0227,4.421158 6.44332,10.745005 3.66589,16.318579 l -1.39719,2.803793 1.87032,1.952931 c 1.99112,2.07912 3.58256,4.824425 3.58256,6.180138 0,0.696167 0.94444,0.823936 6.09041,0.823936 h 6.09043 l 0.36314,-1.93568 c 0.19975,-1.064633 0.23009,-4.234885 0.0675,-7.04499 -0.5166,-8.927854 -3.68564,-16.04369 -9.98226,-22.414372 -6.73272,-6.811916 -15.30699,-10.592968 -24.9605,-11.00702 -9.42544,-0.404293 -17.05221,2.211241 -24.31017,8.336878 -4.00565,3.380749 -3.96536,3.226948 -2.30782,8.809575 2.23463,7.52614 2.49421,15.269436 0.78878,23.527607 l -0.35686,1.728002 h 4.85174 4.85172 z m 28.83617,-0.01605 -1.7364,-1.579511 h -9.29631 -9.29631 v 1.595081 1.595102 l 11.03272,-0.01605 11.0327,-0.01615 -1.7364,-1.579511 z m 43.43454,0.680205 c -3.03521,-4.023072 -5.9684,-6.065978 -10.01493,-6.975179 l -2.17402,-0.488467 -0.005,2.20319 c -0.004,1.211766 -0.15412,3.10043 -0.33541,4.197058 l -0.32957,1.993865 h 6.78087 c 6.37096,0 6.73845,-0.05626 6.07891,-0.930467 z M 75.237723,81.391065 78.78336,76.916952 75.221224,70.757108 c -1.959163,-3.387918 -3.709313,-6.159845 -3.889188,-6.159845 -0.179857,0 -1.930025,2.771927 -3.88921,6.159845 l -3.562131,6.159844 3.545633,4.474091 c 1.950121,2.460751 3.707686,4.474113 3.905708,4.474113 0.197941,0 1.955586,-2.013362 3.905687,-4.474113 z m 72.107677,2.906442 c 3.11221,-0.600496 4.27286,-2.060141 4.27286,-5.373688 0,-1.949016 -0.30972,-2.930349 -1.28194,-4.061747 l -1.28195,-1.491801 -8.2886,-0.170409 -8.2886,-0.17041 v 5.886108 5.886095 l 6.24744,-0.02316 c 3.4361,-0.01202 7.31544,-0.229208 8.62079,-0.481068 z M 110.60381,56.167699 c 1.35654,-1.127063 3.53415,-2.717374 4.83915,-3.534044 l 2.37272,-1.484843 -2.03753,-1.761326 c -3.7742,-3.262502 -10.47756,-4.49736 -15.886335,-2.926423 l -2.544464,0.739013 3.903229,3.596581 c 2.14678,1.978129 4.4881,4.455289 5.20296,5.504806 0.71483,1.049518 1.38615,1.909824 1.49177,1.911831 0.10565,0.0022 1.30197,-0.91851 2.6585,-2.045573 z"
       id="path3778"
       inkscape:connector-curvature="0" />
  </g>
</svg>
