<?xml version="1.0" encoding="utf-8"?>
<!-- Generator: Adobe Illustrator 13.0.0, SVG Export Plug-In . SVG Version: 6.00 Build 14948)  -->
<!DOCTYPE svg PUBLIC "-//W3C//DTD SVG 1.1//EN" "http://www.w3.org/Graphics/SVG/1.1/DTD/svg11.dtd">
<svg version="1.1" id="Capa_1" xmlns="http://www.w3.org/2000/svg" xmlns:xlink="http://www.w3.org/1999/xlink" x="0px" y="0px"
	 width="63.008px" height="63.008px" viewBox="104.996 -0.004 63.008 63.008" enable-background="new 104.996 -0.004 63.008 63.008"
	 xml:space="preserve">
<path fill="#E8EBEB" d="M141.303,53.494c-1.915-1.104-3.521-2.537-4.804-4.181c-1.278,1.641-2.881,3.071-4.79,4.177
	c-1.78,1.027-3.677,1.682-5.596,2c2.503,2.932,6.217,4.797,10.377,4.804c4.16-0.007,7.876-1.874,10.378-4.808
	C144.96,55.167,143.073,54.516,141.303,53.494z"/>
<path fill="#E8EBEB" d="M131.696,9.51L131.696,9.51c1.91,1.103,3.514,2.531,4.794,4.169c1.279-1.64,2.883-3.069,4.794-4.172
	c1.776-1.027,3.669-1.682,5.585-2.002c-2.503-2.93-6.216-4.794-10.374-4.801c-4.161,0.007-7.878,1.875-10.38,4.81
	C128.028,7.832,129.92,8.484,131.696,9.51z"/>
<path fill="#E8EBEB" d="M149.599,10.27c-2.318,0-4.658,0.588-6.814,1.834c-1.396,0.806-2.594,1.822-3.58,2.984
	c4.712,0.772,8.755,3.509,11.256,7.355c2.551,0.127,5.116,0.841,7.478,2.202c1.782,1.028,3.297,2.341,4.532,3.842
	c0.52-1.465,0.794-3.013,0.795-4.578c0-2.317-0.588-4.659-1.83-6.813C158.901,12.714,154.319,10.272,149.599,10.27z"/>
<path fill="#E8EBEB" d="M161.445,45.889c1.239-2.157,1.825-4.495,1.827-6.808c-0.004-4.725-2.45-9.309-6.833-11.836
	c-1.399-0.806-2.875-1.332-4.371-1.604c0.688,1.825,1.081,3.793,1.081,5.858c-0.002,8.269-6.035,15.109-13.935,16.409
	c0.988,1.164,2.187,2.182,3.585,2.988c2.15,1.237,4.487,1.823,6.803,1.823C154.329,52.718,158.918,50.271,161.445,45.889z"/>
<path fill="#E8EBEB" d="M123.392,52.723c2.317,0,4.66-0.587,6.814-1.831c1.395-0.807,2.59-1.822,3.576-2.983
	c-4.704-0.775-8.741-3.508-11.24-7.349c-2.553-0.127-5.12-0.842-7.48-2.204c-1.786-1.03-3.303-2.347-4.54-3.852
	c-0.52,1.467-0.794,3.016-0.795,4.582c0,2.317,0.587,4.659,1.833,6.816C114.089,50.277,118.672,52.721,123.392,52.723z"/>
<path fill="#E8EBEB" d="M116.562,35.758c1.396,0.805,2.873,1.33,4.37,1.603c-0.688-1.825-1.082-3.795-1.082-5.861
	c0-8.267,6.031-15.105,13.928-16.408c-0.987-1.161-2.185-2.177-3.582-2.982l0.749-1.301l-0.749,1.299
	c-2.153-1.241-4.491-1.826-6.804-1.828c-4.725,0.002-9.311,2.449-11.838,6.837c-1.243,2.148-1.828,4.487-1.83,6.802
	C109.729,28.642,112.176,33.229,116.562,35.758z"/>
<path fill="#E8EBEB" d="M136.5,17.85c-7.54,0.013-13.637,6.11-13.651,13.649c0.015,7.539,6.112,13.637,13.651,13.649
	c7.538-0.013,13.635-6.11,13.649-13.649C150.136,23.959,144.038,17.862,136.5,17.85z"/>
</svg>
