<?xml version="1.0" standalone="no"?>
<!DOCTYPE svg PUBLIC "-//W3C//DTD SVG 1.1//EN" "http://www.w3.org/Graphics/SVG/1.1/DTD/svg11.dtd" >
<svg xmlns="http://www.w3.org/2000/svg">
<metadata>Generated by IcoMoon</metadata>
<defs>
<font id="cw-coinfont" horiz-adv-x="1024">
<font-face units-per-em="1024" ascent="960" descent="-64" />
<missing-glyph horiz-adv-x="1024" />
<glyph unicode="&#x20;" horiz-adv-x="512" d="" />
<glyph unicode="&#xe900;" d="M1024 448c0-282.77-229.23-512-512-512s-512 229.23-512 512c0 282.77 229.23 512 512 512s512-229.23 512-512z" />
<glyph unicode="&#xe901;" horiz-adv-x="6212" d="M5973.352 960h-2169.924c-131.471 0-239.017-107.437-239.017-238.908v-546.185c0-131.361 107.547-238.908 239.017-238.908h2169.924c131.361 0 238.908 107.547 238.908 238.908v546.185c0 131.471-107.547 238.908-238.908 238.908z" />
<glyph unicode="&#xe902;" horiz-adv-x="6212" d="M373.561 192.333c32.154 0 63.211 5.926 93.061 17.998 29.85 11.962 56.298 28.972 79.453 50.92v-151.005c-26.338-13.827-54.212-24.363-83.404-31.606-29.301-7.023-59.041-10.535-89.11-10.535-51.579 0-99.975 9.657-145.298 28.972-45.104 19.534-84.611 46.201-118.521 79.892-34.020 33.581-60.797 72.978-80.331 118.082-19.644 45.323-29.411 93.719-29.411 145.298 0 51.469 9.767 99.755 29.411 144.859 19.534 45.323 46.311 84.83 80.331 118.521 33.91 33.581 73.417 60.138 118.521 79.453 45.323 19.534 93.719 29.411 145.298 29.411 30.069 0 59.809-3.731 89.11-10.974 29.191-7.023 57.066-17.449 83.404-31.167v-151.005c-23.156 21.948-49.603 38.849-79.453 50.92-29.85 11.962-60.907 17.998-93.061 17.998-34.569 0-66.942-6.475-97.012-19.315-30.179-12.95-56.627-30.728-79.453-53.554-22.607-22.607-40.275-48.945-53.115-79.014-12.95-30.179-19.315-62.224-19.315-96.134 0-34.020 6.365-66.065 19.315-96.134 12.84-30.179 30.508-56.627 53.115-79.453 22.826-22.607 49.274-40.275 79.453-53.115 30.069-12.95 62.443-19.315 97.012-19.315z" />
<glyph unicode="&#xe903;" horiz-adv-x="6212" d="M1171.392 77.324h-141.786l-150.566 301.57h-87.793v-301.57h-122.472v726.051h285.768c28.643 0 55.859-5.597 81.648-16.681 26.009-10.864 48.725-26.119 68.040-45.653 19.534-19.315 34.788-42.031 45.653-68.040 11.084-25.789 16.681-53.005 16.681-81.648 0-24.033-3.841-46.969-11.413-68.918-7.682-21.948-18.327-42.031-32.045-60.138-13.827-17.888-30.289-33.361-49.603-46.531-19.095-13.169-40.275-22.826-63.65-28.972zM1044.091 591.354c0 11.633-2.524 23.046-7.462 34.239-4.719 11.084-11.194 20.631-19.315 28.533-7.901 8.121-17.449 14.596-28.533 19.315-11.194 4.938-22.607 7.462-34.239 7.462h-163.296v-179.099h163.296c11.633 0 23.046 2.305 34.239 7.023 11.084 4.609 20.631 11.084 28.533 19.315 8.121 8.121 14.596 17.559 19.315 28.094 4.938 10.755 7.462 22.497 7.462 35.117z" />
<glyph unicode="&#xe904;" horiz-adv-x="6212" d="M1736.799 803.375l-223.434-380.145v-345.906h-122.472v345.906l-223.434 380.145h142.225l142.664-242.31 143.103 242.31z" />
<glyph unicode="&#xe905;" horiz-adv-x="6212" d="M2329.115 591.354c0-29.63-5.597-57.066-16.681-82.526-10.864-25.46-26.119-48.067-45.653-67.601-19.315-19.315-42.031-34.569-68.040-45.653-25.789-11.194-53.005-16.681-81.648-16.681h-163.296v-301.57h-122.472v726.051h285.768c28.643 0 55.859-5.597 81.648-16.681 26.009-10.864 48.725-26.119 68.040-45.653 19.534-19.315 34.788-42.031 45.653-68.040 11.084-25.789 16.681-53.005 16.681-81.648zM2206.643 591.354c0 11.633-2.524 23.046-7.462 34.239-4.719 11.084-11.194 20.631-19.315 28.533-7.901 8.121-17.449 14.596-28.533 19.315-11.194 4.938-22.607 7.462-34.239 7.462h-163.296v-179.099h163.296c11.633 0 23.046 2.305 34.239 7.023 11.084 4.609 20.631 11.084 28.533 19.315 8.121 8.121 14.596 17.559 19.315 28.094 4.938 10.755 7.462 22.497 7.462 35.117z" />
<glyph unicode="&#xe906;" horiz-adv-x="6212" d="M2847.698 680.904h-185.683v-603.58h-122.472v603.58h-187v122.472h495.155z" />
<glyph unicode="&#xe907;" horiz-adv-x="6212" d="M3634.807 440.35c0-51.579-9.877-99.975-29.411-145.298-19.315-45.104-45.872-84.501-79.453-118.082-33.691-33.691-73.198-60.358-118.521-79.892-45.104-19.315-93.39-28.972-144.859-28.972-51.579 0-99.975 9.657-145.298 28.972-45.433 19.534-84.94 46.201-118.521 79.892-33.361 33.581-59.919 72.978-79.453 118.082-19.644 45.323-29.411 93.719-29.411 145.298 0 51.469 9.767 99.755 29.411 144.859 19.534 45.323 46.092 84.83 79.453 118.521 33.581 33.581 73.088 60.138 118.521 79.453 45.323 19.534 93.719 29.411 145.298 29.411 51.469 0 99.755-9.877 144.859-29.411 45.323-19.315 84.83-45.872 118.521-79.453 33.581-33.691 60.138-73.198 79.453-118.521 19.534-45.104 29.411-93.39 29.411-144.859zM3510.579 440.35c0 33.91-6.475 65.955-19.315 96.134-12.95 30.069-30.728 56.407-53.554 79.014-22.607 22.826-48.945 40.604-79.014 53.554-30.179 12.84-62.224 19.315-96.134 19.315-34.020 0-66.065-6.475-96.134-19.315-30.179-12.95-56.627-30.728-79.453-53.554-22.607-22.607-40.275-48.945-53.115-79.014-12.95-30.179-19.315-62.224-19.315-96.134 0-34.020 6.365-66.065 19.315-96.134 12.84-30.179 30.508-56.627 53.115-79.453 22.826-22.607 49.274-40.275 79.453-53.115 30.069-12.95 62.114-19.315 96.134-19.315 33.91 0 65.955 6.365 96.134 19.315 30.069 12.84 56.407 30.508 79.014 53.115 22.826 22.826 40.604 49.274 53.554 79.453 12.84 30.069 19.315 62.114 19.315 96.134z" />
<glyph unicode="&#xe908;" horiz-adv-x="6212" d="M4569.366 803.375l-330.103-754.145-137.397 315.617-138.714-315.617-330.103 754.145h133.885l196.218-448.624 71.552 162.857-125.545 285.768h133.885l58.822-133.007 57.505 133.007h133.885l-124.667-285.768 70.674-162.857 196.218 448.624z" />
<glyph unicode="&#xe909;" horiz-adv-x="6212" d="M5312.163 440.35c0-51.579-9.877-99.975-29.411-145.298-19.315-45.104-45.872-84.501-79.453-118.082-33.691-33.691-73.198-60.358-118.521-79.892-45.104-19.315-93.39-28.972-144.859-28.972-51.579 0-99.975 9.657-145.298 28.972-45.433 19.534-84.94 46.201-118.521 79.892-33.361 33.581-59.919 72.978-79.453 118.082-19.644 45.323-29.411 93.719-29.411 145.298 0 51.469 9.767 99.755 29.411 144.859 19.534 45.323 46.092 84.83 79.453 118.521 33.581 33.581 73.088 60.138 118.521 79.453 45.323 19.534 93.719 29.411 145.298 29.411 51.469 0 99.755-9.877 144.859-29.411 45.323-19.315 84.83-45.872 118.521-79.453 33.581-33.691 60.138-73.198 79.453-118.521 19.534-45.104 29.411-93.39 29.411-144.859zM5187.935 440.35c0 33.91-6.475 65.955-19.315 96.134-12.95 30.069-30.728 56.407-53.554 79.014-22.607 22.826-48.945 40.604-79.014 53.554-30.179 12.84-62.224 19.315-96.134 19.315-34.020 0-66.065-6.475-96.134-19.315-30.179-12.95-56.627-30.728-79.453-53.554-22.607-22.607-40.275-48.945-53.115-79.014-12.95-30.179-19.315-62.224-19.315-96.134 0-34.020 6.365-66.065 19.315-96.134 12.84-30.179 30.508-56.627 53.115-79.453 22.826-22.607 49.274-40.275 79.453-53.115 30.069-12.95 62.114-19.315 96.134-19.315 33.91 0 65.955 6.365 96.134 19.315 30.069 12.84 56.407 30.508 79.014 53.115 22.826 22.826 40.604 49.274 53.554 79.453 12.84 30.069 19.315 62.114 19.315 96.134z" />
<glyph unicode="&#xe90a;" horiz-adv-x="6212" d="M6113.598 440.35c0-51.579-9.877-99.975-29.411-145.298-19.315-45.104-45.872-84.501-79.453-118.082-33.691-33.691-73.198-60.358-118.521-79.892-45.104-19.315-93.39-28.972-144.859-28.972-51.579 0-99.975 9.657-145.298 28.972-45.433 19.534-84.94 46.201-118.521 79.892-33.361 33.581-59.919 72.978-79.453 118.082-19.644 45.323-29.411 93.719-29.411 145.298 0 51.469 9.767 99.755 29.411 144.859 19.534 45.323 46.092 84.83 79.453 118.521 33.581 33.581 73.088 60.138 118.521 79.453 45.323 19.534 93.719 29.411 145.298 29.411 51.469 0 99.755-9.877 144.859-29.411 45.323-19.315 84.83-45.872 118.521-79.453 33.581-33.691 60.138-73.198 79.453-118.521 19.534-45.104 29.411-93.39 29.411-144.859zM5989.37 440.35c0 33.91-6.475 65.955-19.315 96.134-12.95 30.069-30.728 56.407-53.554 79.014-22.607 22.826-48.945 40.604-79.014 53.554-30.179 12.84-62.224 19.315-96.134 19.315-34.020 0-66.065-6.475-96.134-19.315-30.179-12.95-56.627-30.728-79.453-53.554-22.607-22.607-40.275-48.945-53.115-79.014-12.95-30.179-19.315-62.224-19.315-96.134 0-34.020 6.365-66.065 19.315-96.134 12.84-30.179 30.508-56.627 53.115-79.453 22.826-22.607 49.274-40.275 79.453-53.115 30.069-12.95 62.114-19.315 96.134-19.315 33.91 0 65.955 6.365 96.134 19.315 30.069 12.84 56.407 30.508 79.014 53.115 22.826 22.826 40.604 49.274 53.554 79.453 12.84 30.069 19.315 62.114 19.315 96.134z" />
<glyph unicode="&#xe90b;" horiz-adv-x="6212" d="M5972.711 960h-2169.691c-131.457 0-238.992-107.535-238.992-238.882v-546.236c0-131.347 107.535-238.882 238.992-238.882h2169.691c131.347 0 238.882 107.535 238.882 238.882v546.236c0 131.347-107.536 238.882-238.882 238.882z" />
<glyph unicode="&#xe90c;" horiz-adv-x="6212" d="M373.521 192.304c32.151 0 63.204 5.925 93.051 17.996 29.847 11.961 56.291 28.969 79.445 50.915v-150.988c-26.335-13.826-54.207-24.36-83.395-31.602-29.298-7.023-59.035-10.534-89.101-10.534-51.573 0-99.964 9.656-145.282 28.969-45.099 19.532-84.602 46.196-118.508 79.883-34.016 33.577-60.79 72.97-80.322 118.069-19.642 45.318-29.408 93.709-29.408 145.282 0 51.463 9.766 99.745 29.408 144.844 19.532 45.318 46.306 84.821 80.322 118.508 33.907 33.577 73.409 60.132 118.508 79.445 45.318 19.532 93.709 29.408 145.282 29.408 30.066 0 59.803-3.731 89.101-10.973 29.188-7.023 57.060-17.447 83.395-31.163v-150.988c-23.153 21.946-49.598 38.844-79.445 50.915-29.847 11.961-60.9 17.996-93.051 17.996-34.565 0-66.935-6.474-97.001-19.312-30.176-12.948-56.621-30.724-79.445-53.548-22.604-22.604-40.271-48.94-53.109-79.006-12.948-30.176-19.312-62.217-19.312-96.123 0-34.016 6.364-66.057 19.312-96.123 12.838-30.176 30.505-56.621 53.109-79.445 22.824-22.604 49.269-40.271 79.445-53.109 30.066-12.948 62.436-19.312 97.001-19.312z" />
<glyph unicode="&#xe90d;" horiz-adv-x="6212" d="M1171.266 77.307h-141.771l-150.55 301.538h-87.784v-301.538h-122.459v725.974h285.737c28.64 0 55.853-5.596 81.639-16.679 26.006-10.863 48.72-26.116 68.033-45.648 19.532-19.312 34.784-42.027 45.648-68.033 11.083-25.787 16.679-53 16.679-81.639 0-24.031-3.841-46.964-11.412-68.91-7.681-21.946-18.325-42.027-32.041-60.132-13.826-17.886-30.285-33.358-49.598-46.526-19.093-13.168-40.271-22.824-63.643-28.969zM1043.979 591.282c0 11.631-2.524 23.043-7.462 34.236-4.718 11.083-11.192 20.629-19.312 28.53-7.901 8.12-17.447 14.594-28.53 19.312-11.192 4.938-22.604 7.462-34.236 7.462h-163.278v-179.079h163.278c11.631 0 23.043 2.304 34.236 7.023 11.083 4.609 20.629 11.083 28.53 19.312 8.12 8.12 14.594 17.557 19.312 28.091 4.938 10.754 7.462 22.495 7.462 35.114z" />
<glyph unicode="&#xe90e;" horiz-adv-x="6212" d="M1736.613 803.281l-223.41-380.105v-345.869h-122.459v345.869l-223.41 380.105h142.21l142.649-242.284 143.088 242.284z" />
<glyph unicode="&#xe90f;" horiz-adv-x="6212" d="M2328.865 591.282c0-29.627-5.596-57.060-16.679-82.517-10.863-25.457-26.116-48.062-45.648-67.594-19.312-19.312-42.027-34.565-68.033-45.648-25.787-11.192-53-16.679-81.639-16.679h-163.278v-301.538h-122.459v725.974h285.737c28.64 0 55.853-5.596 81.639-16.679 26.006-10.863 48.72-26.116 68.033-45.648 19.532-19.312 34.784-42.027 45.648-68.033 11.083-25.787 16.679-53 16.679-81.639zM2206.407 591.282c0 11.631-2.524 23.043-7.462 34.236-4.718 11.083-11.192 20.629-19.312 28.53-7.901 8.12-17.447 14.594-28.53 19.312-11.192 4.938-22.604 7.462-34.236 7.462h-163.278v-179.079h163.278c11.631 0 23.043 2.304 34.236 7.023 11.083 4.609 20.629 11.083 28.53 19.312 8.12 8.12 14.594 17.557 19.312 28.091 4.938 10.754 7.462 22.495 7.462 35.114z" />
<glyph unicode="&#xe910;" horiz-adv-x="6212" d="M2847.392 680.822h-185.663v-603.515h-122.459v603.515h-186.98v122.459h495.102z" />
<glyph unicode="&#xe911;" horiz-adv-x="6212" d="M3634.417 440.294c0-51.573-9.876-99.964-29.408-145.282-19.312-45.099-45.867-84.492-79.445-118.069-33.687-33.687-73.19-60.351-118.508-79.883-45.099-19.312-93.38-28.969-144.844-28.969-51.573 0-99.964 9.656-145.282 28.969-45.428 19.532-84.931 46.196-118.508 79.883-33.358 33.577-59.913 72.97-79.445 118.069-19.642 45.318-29.408 93.709-29.408 145.282 0 51.463 9.766 99.745 29.408 144.844 19.532 45.318 46.087 84.821 79.445 118.508 33.577 33.577 73.080 60.132 118.508 79.445 45.318 19.532 93.709 29.408 145.282 29.408 51.463 0 99.745-9.876 144.844-29.408 45.318-19.312 84.821-45.867 118.508-79.445 33.577-33.687 60.132-73.19 79.445-118.508 19.532-45.099 29.408-93.38 29.408-144.844zM3510.203 440.294c0 33.907-6.474 65.948-19.312 96.123-12.948 30.066-30.724 56.401-53.548 79.006-22.604 22.824-48.94 40.6-79.006 53.548-30.176 12.838-62.217 19.312-96.123 19.312-34.016 0-66.057-6.474-96.123-19.312-30.176-12.948-56.621-30.724-79.445-53.548-22.604-22.604-40.271-48.94-53.109-79.006-12.948-30.176-19.312-62.217-19.312-96.123 0-34.016 6.364-66.057 19.312-96.123 12.838-30.176 30.505-56.621 53.109-79.445 22.824-22.604 49.269-40.271 79.445-53.109 30.066-12.948 62.107-19.312 96.123-19.312 33.907 0 65.948 6.364 96.123 19.312 30.066 12.838 56.401 30.505 79.006 53.109 22.824 22.824 40.6 49.269 53.548 79.445 12.838 30.066 19.312 62.107 19.312 96.123z" />
<glyph unicode="&#xe912;" horiz-adv-x="6212" d="M4568.781 803.281l-330.068-754.064-137.382 315.583-138.699-315.583-330.068 754.064h133.871l196.197-448.576 71.544 162.839-125.531 285.737h133.871l58.815-132.993 57.499 132.993h133.871l-124.653-285.737 70.666-162.839 196.197 448.576z" />
<glyph unicode="&#xe913;" horiz-adv-x="6212" d="M5311.499 440.294c0-51.573-9.876-99.964-29.408-145.282-19.312-45.099-45.867-84.492-79.445-118.069-33.687-33.687-73.19-60.351-118.508-79.883-45.099-19.312-93.38-28.969-144.844-28.969-51.573 0-99.964 9.656-145.282 28.969-45.428 19.532-84.931 46.196-118.508 79.883-33.358 33.577-59.913 72.97-79.445 118.069-19.642 45.318-29.408 93.709-29.408 145.282 0 51.463 9.766 99.745 29.408 144.844 19.532 45.318 46.087 84.821 79.445 118.508 33.577 33.577 73.080 60.132 118.508 79.445 45.318 19.532 93.709 29.408 145.282 29.408 51.463 0 99.745-9.876 144.844-29.408 45.318-19.312 84.821-45.867 118.508-79.445 33.577-33.687 60.132-73.19 79.445-118.508 19.532-45.099 29.408-93.38 29.408-144.844zM5187.284 440.294c0 33.907-6.474 65.948-19.312 96.123-12.948 30.066-30.724 56.401-53.548 79.006-22.604 22.824-48.94 40.6-79.006 53.548-30.176 12.838-62.217 19.312-96.123 19.312-34.016 0-66.057-6.474-96.123-19.312-30.176-12.948-56.621-30.724-79.445-53.548-22.604-22.604-40.271-48.94-53.109-79.006-12.948-30.176-19.312-62.217-19.312-96.123 0-34.016 6.364-66.057 19.312-96.123 12.838-30.176 30.505-56.621 53.109-79.445 22.824-22.604 49.269-40.271 79.445-53.109 30.066-12.948 62.107-19.312 96.123-19.312 33.907 0 65.948 6.364 96.123 19.312 30.066 12.838 56.401 30.505 79.006 53.109 22.824 22.824 40.6 49.269 53.548 79.445 12.838 30.066 19.312 62.107 19.312 96.123z" />
<glyph unicode="&#xe914;" horiz-adv-x="6212" d="M6112.847 440.294c0-51.573-9.876-99.964-29.408-145.282-19.312-45.099-45.867-84.492-79.445-118.069-33.687-33.687-73.19-60.351-118.508-79.883-45.099-19.312-93.38-28.969-144.844-28.969-51.573 0-99.964 9.656-145.282 28.969-45.428 19.532-84.931 46.196-118.508 79.883-33.358 33.577-59.913 72.97-79.445 118.069-19.642 45.318-29.408 93.709-29.408 145.282 0 51.463 9.766 99.745 29.408 144.844 19.532 45.318 46.087 84.821 79.445 118.508 33.577 33.577 73.080 60.132 118.508 79.445 45.318 19.532 93.709 29.408 145.282 29.408 51.463 0 99.745-9.876 144.844-29.408 45.318-19.312 84.821-45.867 118.508-79.445 33.577-33.687 60.132-73.19 79.445-118.508 19.532-45.099 29.408-93.38 29.408-144.844zM5988.633 440.294c0 33.907-6.474 65.948-19.312 96.123-12.948 30.066-30.724 56.401-53.548 79.006-22.604 22.824-48.94 40.6-79.006 53.548-30.176 12.838-62.217 19.312-96.123 19.312-34.016 0-66.057-6.474-96.123-19.312-30.176-12.948-56.621-30.724-79.445-53.548-22.604-22.604-40.271-48.94-53.109-79.006-12.948-30.176-19.312-62.217-19.312-96.123 0-34.016 6.364-66.057 19.312-96.123 12.838-30.176 30.505-56.621 53.109-79.445 22.824-22.604 49.269-40.271 79.445-53.109 30.066-12.948 62.107-19.312 96.123-19.312 33.907 0 65.948 6.364 96.123 19.312 30.066 12.838 56.401 30.505 79.006 53.109 22.824 22.824 40.6 49.269 53.548 79.445 12.838 30.066 19.312 62.107 19.312 96.123z" />
<glyph unicode="&#xe915;" glyph-name="trezor-lock" horiz-adv-x="695" d="M348.276 960c-138.622 0-250.806-113.682-250.806-254.155v-95.255c-48.679-8.93-97.497-20.837-97.497-36.288v-497.112c0 0 0-13.75 15.247-20.27 55.253-22.68 272.628-100.641 322.565-118.502 6.435-2.41 8.253-2.41 9.932-2.41 2.378 0 3.497 0 9.932 2.41 49.937 17.86 267.872 95.822 323.125 118.502 14.128 5.953 14.687 19.703 14.687 19.703v497.679c0 15.451-48.119 27.924-96.937 36.288v95.255c0.699 140.473-112.184 254.155-250.247 254.155zM348.276 838.522c81.69 0 131.068-50.037 131.068-132.818v-82.781c-91.622 6.52-169.815 6.52-261.997 0v82.781c0 82.923 49.378 132.818 130.928 132.818zM347.717 501.019c114.003 0 209.681-8.93 209.681-24.948v-310.146c0-4.819-0.559-5.386-4.756-7.087-4.057-1.843-194.434-71.441-194.434-71.441s-7.693-2.41-9.932-2.41c-2.378 0-9.932 2.977-9.932 2.977s-190.378 69.598-194.434 71.441c-4.057 1.843-4.756 2.41-4.756 7.087v310.146c-1.119 16.018 94.559 24.381 208.562 24.381z" />
<glyph unicode="&#xe916;" glyph-name="trezor-logo" horiz-adv-x="4427" d="M352.957 960c-140.474 0-254.157-113.683-254.157-254.157v-95.256c-49.329-8.93-98.8-20.837-98.8-36.288v-497.117c0 0 0-13.75 15.451-20.27 55.991-22.68 276.27-100.642 326.875-118.503 6.521-2.41 8.363-2.41 10.064-2.41 2.41 0 3.544 0 10.064 2.41 50.605 17.86 271.451 95.823 327.442 118.503 14.317 5.954 14.884 19.703 14.884 19.703v497.684c0 15.451-48.762 27.925-98.233 36.288v95.256c0.709 140.474-113.683 254.157-253.59 254.157zM352.957 838.521c82.782 0 132.819-50.038 132.819-132.82v-82.782c-92.846 6.521-172.084 6.521-265.497 0v82.782c0 82.924 50.038 132.82 132.678 132.82zM352.39 501.014c115.526 0 212.483-8.93 212.483-24.948v-310.149c0-4.819-0.567-5.386-4.819-7.088-4.111-1.843-197.032-71.442-197.032-71.442s-7.796-2.41-10.064-2.41c-2.41 0-10.064 2.977-10.064 2.977s-192.921 69.599-197.032 71.442c-4.111 1.843-4.82 2.41-4.82 7.088v310.149c-1.134 16.018 95.823 24.381 211.349 24.381zM1012.351 38.674v444.959h-162.578v159.56h506.902v-159.56h-160.98v-444.959zM1767.379 38.674l-83.419 190.088h-66.38v-190.088h-183.344v604.519h322.671c141.634 0 217.599-93.89 217.599-207.127 0-104.362-60.345-159.56-108.799-183.344l109.509-213.871h-207.837zM1789.032 436.066c0 32.835-29.108 47.034-59.635 47.034h-111.817v-95.488h111.817c30.528 0.71 59.635 14.909 59.635 48.454zM2070.703 38.674v604.519h458.448v-159.56h-275.814v-59.635h269.070v-159.56h-269.070v-66.38h275.814v-159.383zM2624.461 37.964v145.361l230.378 299.597h-230.378v159.56h471.759v-143.942l-231.087-301.195h237.832v-159.56zM3147.692 339.869c0 185.651 143.942 313.086 331.012 313.086 186.361 0 331.012-126.725 331.012-313.086 0-185.651-143.942-312.376-331.012-312.376s-331.012 126.725-331.012 312.376zM3623.356 339.869c0 84.306-57.328 151.396-145.361 151.396s-145.361-67.090-145.361-151.396c0-84.306 57.328-151.396 145.361-151.396 88.743 0 145.361 67.090 145.361 151.396zM4219.533 37.964l-83.419 190.088h-66.38v-190.088h-183.344v604.519h322.671c141.634 0 217.599-93.89 217.599-207.127 0-104.362-60.345-159.56-108.799-183.344l109.509-213.871h-207.837zM4241.896 436.066c0 32.835-29.108 47.034-59.635 47.034h-111.817v-95.488h111.817c30.705 0.71 59.635 14.909 59.635 48.454z" />
<glyph unicode="&#xe917;" d="M739.2 603.84c0.088-1.734 0.139-3.765 0.139-5.808 0-51.531-32.028-95.581-77.264-113.33l-0.827-0.286s32.384 32 30.88 114.016c-1.536 82.016-61.76 122.56-61.76 122.56s107.328-23.904 108.8-117.12zM381.952 165.792l-109.952-5.408v10.272s67.296 6.944 67.296 127.68v308.48c0 102.208-67.296 119.904-67.296 119.904v9.28l109.952-5.376zM557.696 160.032c-47.84-0.416-136.576 6.272-136.576 6.272v563.52c58.496 0.8 78.944 8.864 127.136 1.92 48.224-6.912 89.632-55.072 100.928-103.232s-0.736-94.016-16.192-119.040-49.312-42.4-49.312-42.4 51.2-17.728 69.28-33.12c18.080-15.424 53.12-57.408 39.552-148.736s-87.008-124.8-134.816-125.184zM684.768 180.832s52.16 45.44 49.856 137.632-49.856 135.52-49.856 135.52 98.112-24.64 99.2-134.464c1.152-109.792-99.2-138.72-99.2-138.72zM585.568 511.52c35.136 46.752 24.096 134.72-18.464 164.8s-87.36 15.040-96 6.56c-8.704-8.48-8.32-205.76-8.32-205.76s87.616-12.352 122.752 34.4zM592.064 427.52c-32.896 14.656-129.28 10.816-129.28 10.816s-1.504-49.824 2.016-143.072 34.656-92.736 67.040-94.016c32.384-1.28 94.144 1.024 114.464 81.44 20.352 80.384-21.344 130.208-54.24 144.832z" />
<glyph unicode="&#xe918;" d="M1024 448c0-282.77-229.23-512-512-512s-512 229.23-512 512c0 282.77 229.23 512 512 512s512-229.23 512-512z" />
<glyph unicode="&#xe919;" d="M852.256 453.856l-346.112 346.144-346.144-346.144 346.144-127.872 346.112 127.872zM267.648 483.2l234.656 239.936s229.408-234.656 239.072-239.36c9.696-4.672-157.792 0-157.792 0l-77.44 79.2-78.336-79.776h-160.16zM506.144 301.632l346.112 128.768-346.112-322.656-346.144 320.896 346.144-127.040z" />
<glyph unicode="&#xe91a;" d="M1024 448c0-282.77-229.23-512-512-512s-512 229.23-512 512c0 282.77 229.23 512 512 512s512-229.23 512-512z" />
<glyph unicode="&#xe91b;" d="M527.936 832v-283.84l239.904-107.2z" />
<glyph unicode="&#xe91c;" d="M527.936 832l-239.936-391.040 239.936 107.2z" />
<glyph unicode="&#xe91d;" d="M527.936 257.024v-192.864l240.064 332.128z" />
<glyph unicode="&#xe91e;" d="M527.936 64.16v192.896l-239.936 139.232z" />
<glyph unicode="&#xe91f;" d="M527.936 301.664l239.904 139.296-239.904 107.136z" />
<glyph unicode="&#xe920;" d="M288 440.96l239.936-139.296v246.432z" />
<glyph unicode="&#xe921;" d="M1024 448c0-282.77-229.23-512-512-512s-512 229.23-512 512c0 282.77 229.23 512 512 512s512-229.23 512-512z" />
<glyph unicode="&#xe922;" d="M610.752 703.872h-232.832l-19.264-107.744 209.984-0.32c103.392 0 134.080-37.536 133.088-99.84-0.448-31.936-14.368-85.952-20.256-103.36-15.904-46.72-48.672-99.904-171.488-99.744l-204.096 0.128-19.264-107.872h232.224c81.888 0 116.768 9.568 153.6 26.56 81.728 37.696 130.4 118.432 149.952 223.808 28.992 156.8-7.168 268.384-211.68 268.384z" />
<glyph unicode="&#xe923;" d="M505.824 454.464c7.584 31.52 9.984 44.16 9.984 44.16h-238.272c-60.928 0-69.632-39.68-75.424-63.68-7.584-31.392-9.984-44.192-9.984-44.192h238.304c60.896 0 69.6 39.68 75.392 63.712z" />
<glyph unicode="&#xe924;" d="M1024 448c0-282.77-229.23-512-512-512s-512 229.23-512 512c0 282.77 229.23 512 512 512s512-229.23 512-512z" />
<glyph unicode="&#xe925;" d="M423.936 492.48h138.048v-73.152h-138.048v-154.176h87.072c34.464 0 62.656 4.64 84.608 13.984 21.952 9.312 39.168 22.208 51.68 38.72 12.284 16.333 21.204 35.908 25.329 57.194l0.143 0.886c4.278 20.966 6.727 45.065 6.727 69.736 0 0.819-0.003 1.637-0.008 2.454l0.001-0.126c0.005 0.692 0.007 1.51 0.007 2.328 0 24.671-2.449 48.769-7.117 72.066l0.39-2.33c-4.263 22.173-13.184 41.748-25.732 58.441l0.26-0.361c-12.512 16.512-29.76 29.408-51.68 38.72-21.952 9.344-50.144 13.984-84.608 13.984h-87.072v-138.4zM335.424 419.328h-47.424v73.12h47.424v211.552h209.568c38.72 0 72.224-6.72 100.544-20.064 28.32-13.408 51.424-31.68 69.376-54.88 17.92-23.168 31.264-50.304 40-81.376s13.088-64.32 13.088-99.68c0.005-0.711 0.008-1.553 0.008-2.394 0-34.619-4.793-68.119-13.751-99.872l0.623 2.586c-8.704-31.040-22.048-58.208-40-81.376-17.92-23.2-41.024-41.472-69.344-54.88-28.32-13.376-61.856-20.064-100.544-20.064h-209.568v227.328z" />
<glyph unicode="&#xe926;" d="M1024 448c0-282.77-229.23-512-512-512s-512 229.23-512 512c0 282.77 229.23 512 512 512s512-229.23 512-512z" />
<glyph unicode="&#xe927;" d="M333.664 345.152l-45.664-17.728 22.016 88.288 46.208 18.56 66.592 269.728h164.128l-48.608-198.272 45.12 18.272-21.76-88-45.664-18.272-27.136-111.456h247.104l-27.936-114.272h-412z" />
<glyph unicode="&#xe928;" d="M1024 448c0-282.77-229.23-512-512-512s-512 229.23-512 512c0 282.77 229.23 512 512 512s512-229.23 512-512z" />
<glyph unicode="&#xe929;" d="M573.504 403.744v0.064c-3.52-0.256-21.664-1.344-62.144-1.344-32.32 0-55.072 0.96-63.072 1.344v-0.096c-124.416 5.472-217.28 27.136-217.28 53.056 0 25.888 92.864 47.552 217.28 53.12v-84.608c8.128-0.576 31.424-1.952 63.616-1.952 38.624 0 57.984 1.6 61.6 1.92v84.576c124.16-5.536 216.8-27.2 216.8-53.056 0-25.92-92.64-47.52-216.8-53.024zM573.504 518.624v75.712h173.248v115.456h-471.712v-115.456h173.248v-75.68c-140.8-6.464-246.688-34.368-246.688-67.776s105.888-61.28 246.688-67.776v-242.624h125.216v242.688c140.576 6.464 246.208 34.336 246.208 67.712s-105.632 61.248-246.208 67.744z" />
<glyph unicode="&#xe92a;" d="M1024 448c0-282.77-229.23-512-512-512s-512 229.23-512 512c0 282.77 229.23 512 512 512s512-229.23 512-512z" />
<glyph unicode="&#xe92b;" d="M504 80c-207.68 0-376 168.32-376 376s168.32 376 376 376 376-168.32 376-376c0-207.659-168.341-376-376-376v0zM481.6 595.52c-42.615-2.178-76.576-36.362-78.394-78.87l-0.006-0.17c0-38.72 23.68-64 73.92-74.56l35.2-8.32c34.24-8 48.32-19.52 48.32-39.040s-24.64-38.72-56.64-38.72c-1.664-0.162-3.597-0.254-5.552-0.254-21.967 0-41.213 11.65-51.897 29.108l-0.151 0.266c-3.543 7.389-10.937 12.414-19.511 12.48h-18.889c-5.247-0.998-9.16-5.548-9.16-11.013 0-0.745 0.073-1.474 0.212-2.178l-0.012 0.071c9.561-38.075 43.201-65.927 83.45-66.559l0.070-0.001v-26.88c0-12.46 10.1-22.56 22.56-22.56s22.56 10.1 22.56 22.56v0 27.2c45.446 0.532 82.168 37.141 82.879 82.493l0.001 0.067c0 40.64-23.36 64-78.72 75.84l-32 7.040c-32 8-47.040 18.56-47.040 36.48s19.2 37.76 51.2 37.76c1.635 0.181 3.532 0.284 5.452 0.284 19.308 0 36.181-10.427 45.294-25.957l0.134-0.247c4.169-8.73 12.905-14.666 23.033-14.72h15.047c5.927 1.486 10.247 6.766 10.247 13.055 0 1.044-0.119 2.060-0.344 3.035l0.018-0.091c-9.020 35.19-39.2 61.252-75.879 63.983l-0.281 0.017v22.080c0 12.46-10.1 22.56-22.56 22.56s-22.56-10.1-22.56-22.56v0-23.68zM222.080 456c0.079-123.333 79.523-228.090 190.021-265.97l1.979-0.59h4.48c7.953 0 14.4 6.447 14.4 14.4v0 6.72c0 0.016 0 0.035 0 0.053 0 12.456-7.571 23.144-18.363 27.712l-0.197 0.074c-87.137 35.855-147.366 120.094-147.366 218.4s60.229 182.545 145.8 217.828l1.566 0.572c10.962 4.539 18.538 15.142 18.56 27.517v7.363c0 0.038 0.001 0.084 0.001 0.129 0 7.423-6.017 13.44-13.44 13.44-1.606 0-3.146-0.282-4.574-0.798l0.094 0.030c-112.978-38.185-192.881-143.191-192.96-266.871v-0.009zM785.92 456c-0.224 123.204-79.624 227.805-190.021 265.65l-1.979 0.59h-4.8c-8.306 0-15.040-6.734-15.040-15.040v0-4.8c0.278-12.901 8.15-23.897 19.313-28.72l0.207-0.080c86.925-35.952 146.971-120.084 146.971-218.24s-60.046-182.288-145.409-217.666l-1.562-0.574c-11.145-4.948-18.85-15.773-19.199-28.436l-0.001-0.044v-5.44c0.098-8.232 6.794-14.867 15.039-14.867 1.718 0 3.369 0.288 4.907 0.819l-0.106-0.032c112.365 38.583 191.68 143.343 191.68 266.628 0 0.089 0 0.177 0 0.266v-0.014z" />
<glyph unicode="&#xe92c;" d="M1024 448c0-282.77-229.23-512-512-512s-512 229.23-512 512c0 282.77 229.23 512 512 512s512-229.23 512-512z" />
<glyph unicode="&#xe92d;" d="M84.224 429.76l62.4 71.072h222.016l136.416-174.016 356.96 494.496c21.769-19.699 41.3-41.057 58.685-64.123l0.835-1.157c17.246-22.71 33.174-48.366 46.617-75.473l1.255-2.799-438.24-606.176c-8.288-8.704-16.992-13.056-26.112-13.056-9.152 0-18.336 4.352-27.584 13.056l-277.152 358.208h-116.096z" />
<glyph unicode="&#xe92e;" d="M1024 448c0-282.77-229.23-512-512-512s-512 229.23-512 512c0 282.77 229.23 512 512 512s512-229.23 512-512z" />
<glyph unicode="&#xe92f;" d="M511.040 792.48c191.52 0 346.4-154.88 346.4-346.368-0.141-39.317-6.665-77.063-18.589-112.321l0.733 2.497h-103.232v291.008l-225.28-225.28-225.28 225.28v-291.008h-103.264c-11.181 32.764-17.694 70.512-17.824 109.763v0.061c0 191.488 154.88 346.368 346.368 346.368zM459.456 351.36l52.544-51.68 51.616 51.648 97.632 98.56v-183.040h145.504c-61.73-100.287-170.906-166.144-295.464-166.144-0.076 0-0.152 0-0.229 0h0.012c-124.864 0-234.688 66.624-295.68 166.144h145.472v183.040l98.56-98.56z" />
<glyph unicode="&#xe930;" d="M1024 448c0-282.77-229.23-512-512-512s-512 229.23-512 512c0 282.77 229.23 512 512 512s512-229.23 512-512z" />
<glyph unicode="&#xe931;" d="M678.624 622.912c-24.832 63.104-87.104 68.8-159.616 54.72l-25.824 90.016-54.784-15.712 25.152-87.68c-14.4-4.096-29.056-8.64-43.616-13.12l-25.28 88.256-54.752-15.68 25.76-90.016c-11.776-3.648-23.36-7.232-34.72-10.496l-0.096 0.32-75.584-21.664 16.8-58.56s40.256 12.416 39.776 11.456c22.208 6.368 33.12-4.448 38.4-14.976l29.44-102.528c1.504 0.416 3.52 0.928 5.888 1.28l-5.792-1.664 41.184-143.68c1.024-7.264 0.128-19.584-15.36-24.064 0.864-0.416-39.872-11.392-39.872-11.392l7.904-68.576 71.296 20.48c13.28 3.744 26.4 7.264 39.232 10.88l26.144-91.040 54.72 15.68-25.824 90.080c29.491 7.44 44.172 11.613 58.786 15.941l-14.882-3.781 25.664-89.696 54.816 15.712-26.048 90.88c90.592 31.712 148.416 73.408 131.616 162.24-13.504 71.488-55.168 93.184-111.072 90.752 27.136 25.28 38.816 59.456 20.544 105.6zM657.824 406.272c19.52-68.064-99.2-93.728-136.32-104.416l-34.592 120.64c37.12 10.656 150.528 54.72 170.88-16.256zM583.52 569.152c17.728-61.92-81.504-82.56-112.448-91.424l-31.36 109.408c30.912 8.864 125.28 46.56 143.808-18.016z" />
<glyph unicode="&#xe932;" d="M1024 448c0-282.77-229.23-512-512-512s-512 229.23-512 512c0 282.77 229.23 512 512 512s512-229.23 512-512z" />
<glyph unicode="&#xe933;" d="M742.048 511.36c10.048 67.072-41.056 103.136-110.88 127.2l22.656 90.88-55.296 13.76-22.080-88.48c-14.528 3.648-29.44 7.040-44.32 10.432l22.24 89.056-55.296 13.792-22.656-90.848c-12.032 2.752-23.872 5.44-35.328 8.32l0.064 0.288-76.288 19.040-14.72-59.072s41.056-9.408 40.192-9.984c22.4-5.6 26.432-20.416 25.76-32.192l-25.792-103.52c1.536-0.384 3.52-0.96 5.76-1.824l-5.856 1.44-36.16-145.024c-2.752-6.784-9.696-16.992-25.376-13.12 0.576-0.8-40.192 10.016-40.192 10.016l-27.456-63.296 72-17.952c13.376-3.36 26.496-6.88 39.392-10.176l-22.88-91.904 55.264-13.76 22.656 90.88c15.104-4.064 29.76-7.84 44.096-11.424l-22.592-90.496 55.296-13.76 22.88 91.712c94.336-17.856 165.248-10.656 195.104 74.656 24.064 68.672-1.184 108.32-50.816 134.144 36.16 8.32 63.36 32.096 70.624 81.216zM615.648 334.144c-17.056-68.704-132.736-31.552-170.24-22.24l30.4 121.76c37.504-9.376 157.728-27.904 139.84-99.52zM632.768 512.352c-15.584-62.496-111.84-30.72-143.040-22.944l27.52 110.4c31.2-7.776 131.776-22.272 115.52-87.456z" />
<glyph unicode="&#xe934;" glyph-name="blk-black" d="M512-64c-282.784 0-512 229.216-512 512s229.216 512 512 512 512-229.216 512-512-229.216-512-512-512zM739.2 603.84c-1.504 93.248-108.832 117.12-108.832 117.12s60.224-40.512 61.76-122.528c1.504-82.016-30.88-114.016-30.88-114.016s79.456 26.208 77.952 119.424zM381.952 165.792v564.8l-109.952 5.408v-9.248s67.296-17.728 67.296-119.936v-308.48c0-120.736-67.296-127.68-67.296-127.68v-10.24zM557.696 160.032c47.808 0.352 121.248 33.856 134.816 125.184 13.536 91.328-21.44 133.312-39.552 148.736-18.080 15.392-69.28 33.12-69.28 33.12s33.856 17.344 49.312 42.4 27.52 70.88 16.192 119.040c-11.296 48.16-52.704 96.32-100.928 103.264-48.192 6.912-68.64-1.152-127.136-1.92v-563.52s88.736-6.72 136.576-6.304zM684.768 180.832s100.352 28.896 99.2 138.688c-1.088 109.792-99.2 134.464-99.2 134.464s47.584-43.328 49.856-135.52-49.824-137.664-49.824-137.664zM585.568 511.52c-35.168-46.752-122.752-34.432-122.752-34.432s-0.416 197.312 8.256 205.792c8.64 8.48 53.472 23.52 96-6.56 42.56-30.080 53.632-118.048 18.464-164.8zM592.064 427.52c32.896-14.624 74.56-64.448 54.24-144.832-20.32-80.416-82.080-82.72-114.464-81.44s-63.552 0.768-67.040 94.016-2.016 143.040-2.016 143.040 96.384 3.872 129.28-10.784z" />
<glyph unicode="&#xe935;" d="M512-64c-282.784 0-512 229.216-512 512s229.216 512 512 512 512-229.216 512-512-229.216-512-512-512zM767.808 440.992l-239.872 391.008-239.936-391.040 239.936-139.296 239.872 139.328zM768 396.288l-240.064-139.232-239.936 139.2 239.936-332.096 240.064 332.128z" />
<glyph unicode="&#xe936;" d="M527.936 832v-283.84l239.904-107.2zM527.936 257.024v-192.864l240.064 332.128z" />
<glyph unicode="&#xe937;" d="M527.936 301.664l239.904 139.296-239.904 107.136z" />
<glyph unicode="&#xe938;" d="M288 440.96l239.936-139.296v246.432z" />
<glyph unicode="&#xe939;" glyph-name="usdc-black" d="M512-64c-282.784 0-512 229.216-512 512s229.216 512 512 512 512-229.216 512-512-229.216-512-512-512zM504 80c207.659 0 376 168.341 376 376v0c0 207.68-168.32 376-376 376s-376-168.32-376-376 168.32-376 376-376zM481.6 595.52v23.68c0 12.46 10.1 22.56 22.56 22.56s22.56-10.1 22.56-22.56v0-22.080c36.96-2.748 67.14-28.81 76.032-63.412l0.128-0.588c0.208-0.885 0.327-1.901 0.327-2.945 0-6.289-4.32-11.569-10.154-13.035l-0.093-0.020h-15.040c-10.135 0.054-18.871 5.99-22.974 14.566l-0.066 0.154c-9.248 15.777-26.12 26.204-45.428 26.204-1.92 0-3.817-0.103-5.683-0.304l0.232 0.020c-32 0-51.2-19.84-51.2-37.76s15.040-28.48 47.040-36.48l32-7.040c55.36-11.84 78.72-35.2 78.72-75.84-0.713-45.419-37.434-82.028-82.829-82.56h-0.051v-27.2c0-12.46-10.1-22.56-22.56-22.56s-22.56 10.1-22.56 22.56v0 26.88c-40.319 0.633-73.959 28.485-83.391 65.957l-0.129 0.603c-0.127 0.634-0.2 1.362-0.2 2.107 0 5.464 3.913 10.015 9.090 11.002l0.070 0.011h18.88c8.583-0.066 15.977-5.091 19.463-12.349l0.057-0.131c10.835-17.724 30.081-29.374 52.048-29.374 1.955 0 3.888 0.092 5.795 0.273l-0.244-0.019c32 0 56.64 19.2 56.64 38.72s-14.080 31.040-48.32 39.040l-35.2 8.32c-50.24 10.56-73.92 35.84-73.92 74.56 1.824 42.678 35.785 76.862 78.201 79.032l0.199 0.008zM222.080 456c0.079 123.689 79.982 228.695 190.978 266.297l1.982 0.583c1.334 0.487 2.875 0.769 4.481 0.769 7.423 0 13.44-6.017 13.44-13.44 0-0.045 0-0.091-0.001-0.136v0.007-7.36c-0.022-12.378-7.598-22.981-18.363-27.447l-0.197-0.073c-87.137-35.855-147.366-120.094-147.366-218.4s60.229-182.545 145.8-217.828l1.566-0.572c10.989-4.643 18.56-15.33 18.56-27.787 0-0.019 0-0.038 0-0.056v0.003-6.72c0-7.953-6.447-14.4-14.4-14.4v0h-4.48c-112.477 38.469-191.921 143.226-192 266.55v0.010zM785.92 456c0-0.075 0-0.164 0-0.252 0-123.285-79.315-228.045-189.702-266.036l-1.978-0.592c-1.432-0.499-3.083-0.787-4.801-0.787-8.245 0-14.941 6.635-15.039 14.858v5.449c0.35 12.707 8.055 23.532 18.996 28.399l0.204 0.081c86.925 35.952 146.971 120.084 146.971 218.24s-60.046 182.288-145.409 217.666l-1.562 0.574c-11.37 4.903-19.242 15.899-19.519 28.765l-0.001 0.035v4.8c0 8.32 6.72 15.040 15.040 15.040h4.8c112.376-38.435 191.776-143.035 192-266.213v-0.027z" />
<glyph unicode="&#xe93a;" glyph-name="usdt-black" d="M512-64c-282.784 0-512 229.216-512 512s229.216 512 512 512 512-229.216 512-512-229.216-512-512-512zM573.504 518.624v75.712h173.248v115.456h-471.712v-115.456h173.248v-75.68c-140.8-6.464-246.688-34.368-246.688-67.776s105.888-61.28 246.688-67.776v-242.624h125.216v242.688c140.576 6.464 246.208 34.336 246.208 67.712s-105.632 61.248-246.208 67.744zM573.504 403.744v0.064c-3.52-0.256-21.664-1.344-62.144-1.344-32.32 0-55.072 0.96-63.072 1.344v-0.096c-124.416 5.472-217.28 27.136-217.28 53.056 0 25.888 92.864 47.552 217.28 53.12v-84.608c8.128-0.576 31.424-1.952 63.616-1.952 38.624 0 57.984 1.6 61.6 1.92v84.576c124.16-5.536 216.8-27.2 216.8-53.056 0-25.92-92.64-47.52-216.8-53.024z" />
<glyph unicode="&#xe93b;" glyph-name="dai-black" d="M512-64c-282.784 0-512 229.216-512 512s229.216 512 512 512 512-229.216 512-512-229.216-512-512-512zM852.256 453.856l-346.112 346.144-346.144-346.144 346.144-127.872 346.112 127.872zM267.648 483.2l234.656 239.936s229.408-234.656 239.072-239.36c9.696-4.672-157.792 0-157.792 0l-77.44 79.2-78.336-79.776h-160.16zM506.144 301.632l-346.144 127.008 346.144-320.896 346.112 322.656-346.112-128.768z" />
<glyph unicode="&#xe93c;" glyph-name="vtc-black" d="M872 812.032c-3.064 2.947-6.315 5.975-9.614 8.951l-0.37 0.329-356.96-494.496-136.416 174.016h-222.016l-62.4-71.040h116.096l277.152-358.208c9.28-8.704 18.432-13.056 27.584-13.056 9.12 0 17.824 4.352 26.112 13.056l438.24 606.176c-4.291 8.918-7.438 14.937-10.706 20.88l1.266-2.512c40.291-71.286 64.033-156.537 64.033-247.334 0-0.279 0-0.558-0.001-0.837v0.043c0-282.784-229.216-512-512-512s-512 229.216-512 512 229.216 512 512 512c140.352 0 267.52-56.48 360-147.968z" />
<glyph unicode="&#xe93d;" glyph-name="xmr-black" d="M512-64c-282.784 0-512 229.216-512 512s229.216 512 512 512 512-229.216 512-512-229.216-512-512-512zM511.040 792.48c-0.057 0-0.125 0-0.192 0-191.152 0-346.112-154.96-346.112-346.112 0-0.090 0-0.18 0-0.27v0.014c0-38.464 6.56-75.072 17.824-109.824h103.264v291.008l225.28-225.28 225.28 225.28v-291.008h103.232c11.191 32.761 17.715 70.507 17.856 109.757v0.067c0 191.488-154.88 346.368-346.368 346.368zM459.456 351.36l-98.56 98.56v-183.040h-145.504c60.992-99.52 170.816-166.144 295.68-166.144 124.832 0 235.584 66.624 295.68 166.144h-145.504v183.040l-97.6-98.56-51.648-51.68-52.576 51.648z" />
<glyph unicode="&#xe93e;" glyph-name="dash-black" d="M512-64c-282.784 0-512 229.216-512 512s229.216 512 512 512 512-229.216 512-512-229.216-512-512-512zM610.752 703.872h-232.832l-19.264-107.744 209.984-0.32c103.392 0 134.080-37.536 133.088-99.84-0.448-31.936-14.368-85.952-20.256-103.36-15.904-46.72-48.672-99.904-171.488-99.744l-204.096 0.128-19.264-107.872h232.224c81.888 0 116.768 9.568 153.6 26.56 81.728 37.696 130.4 118.432 149.952 223.808 28.992 156.8-7.168 268.384-211.68 268.384zM505.792 454.464c7.616 31.52 10.016 44.16 10.016 44.16h-238.272c-60.928 0-69.632-39.68-75.424-63.68-7.584-31.392-9.984-44.192-9.984-44.192h238.304c60.896 0 69.6 39.68 75.392 63.712z" />
<glyph unicode="&#xe93f;" glyph-name="bch-black" d="M512-64c-282.784 0-512 229.216-512 512s229.216 512 512 512 512-229.216 512-512-229.216-512-512-512zM679.552 617.888c-24.864 63.104-87.104 68.8-159.616 54.72l-25.824 90.016-54.784-15.712 25.12-87.68c-14.4-4.096-29.024-8.608-43.584-13.12l-25.28 88.256-54.784-15.68 25.792-90.016c-11.808-3.648-23.36-7.2-34.752-10.464l-0.064 0.256-75.584-21.632 16.8-58.528s40.224 12.384 39.776 11.424c22.176 6.4 33.12-4.448 38.4-14.944l29.44-102.56c1.504 0.416 3.52 0.96 5.888 1.28l-5.792-1.664 41.184-143.68c1.024-7.264 0.096-19.584-15.392-24.064 0.864-0.416-39.84-11.392-39.84-11.392l7.872-68.576 71.328 20.48c13.248 3.776 26.368 7.296 39.232 10.88l26.112-91.040 54.72 15.68-25.792 90.080c29.484 7.444 44.153 11.617 58.757 15.944l-14.885-3.784 25.696-89.696 54.784 15.712-26.016 90.88c90.592 31.712 148.416 73.408 131.616 162.24-13.504 71.488-55.2 93.184-111.104 90.752 27.136 25.28 38.848 59.488 20.576 105.632zM658.72 401.248c19.52-68.064-99.2-93.728-136.32-104.416l-34.56 120.64c37.12 10.656 150.528 54.72 170.88-16.256zM584.416 564.128c17.728-61.92-81.504-82.56-112.416-91.424l-31.36 109.408c30.912 8.864 125.248 46.56 143.776-17.984z" />
<glyph unicode="&#xe940;" glyph-name="doge-black" d="M512-64c-282.784 0-512 229.216-512 512s229.216 512 512 512 512-229.216 512-512-229.216-512-512-512zM335.424 419.328v-227.328h209.568c38.72 0 72.224 6.72 100.544 20.064 28.32 13.408 51.424 31.68 69.376 54.88 17.92 23.168 31.264 50.304 40 81.376s13.088 64.32 13.088 99.68c0.005 0.711 0.008 1.553 0.008 2.394 0 34.619-4.793 68.119-13.751 99.872l0.623-2.586c-8.704 31.040-22.048 58.208-40 81.376-17.92 23.2-41.024 41.472-69.344 54.88-28.32 13.344-61.856 20.064-100.576 20.064h-209.568v-211.52h-47.392v-73.152h47.424zM423.936 492.448v138.4h87.072c34.464 0 62.656-4.64 84.608-13.984 21.952-9.312 39.168-22.208 51.68-38.72 12.284-16.333 21.204-35.908 25.329-57.194l0.143-0.886c4.48-22.24 6.72-46.24 6.72-72.064 0.005-0.692 0.007-1.51 0.007-2.328 0-24.671-2.449-48.769-7.117-72.066l0.39 2.33c-4.48-22.24-12.96-41.6-25.472-58.080-12.512-16.512-29.76-29.408-51.68-38.72-21.952-9.344-50.144-13.984-84.608-13.984h-87.072v154.176h138.048v73.12h-138.048z" />
<glyph unicode="&#xe941;" glyph-name="ltc-black" d="M512-64c-282.784 0-512 229.216-512 512s229.216 512 512 512 512-229.216 512-512-229.216-512-512-512zM333.664 345.152l-37.6-153.152h412l27.936 114.272h-247.104l27.136 111.456 45.664 18.272 21.76 88-45.12-18.272 48.608 198.272h-164.128l-66.592-269.728-46.208-18.56-22.016-88.288 45.664 17.728z" />
<glyph unicode="&#xe942;" glyph-name="btc-black" d="M512-64c-282.784 0-512 229.216-512 512s229.216 512 512 512 512-229.216 512-512-229.216-512-512-512zM742.048 511.36c10.048 67.072-41.056 103.136-110.88 127.2l22.656 90.88-55.296 13.76-22.080-88.48c-14.528 3.648-29.44 7.040-44.32 10.432l22.24 89.056-55.296 13.792-22.656-90.848c-12.032 2.752-23.872 5.44-35.328 8.32l0.064 0.288-76.288 19.040-14.72-59.072s41.056-9.408 40.192-9.984c22.4-5.6 26.432-20.416 25.76-32.192l-25.792-103.52c1.536-0.384 3.52-0.96 5.76-1.824l-5.856 1.44-36.16-145.024c-2.752-6.784-9.696-16.992-25.376-13.12 0.576-0.8-40.192 10.016-40.192 10.016l-27.456-63.296 72-17.952c13.376-3.36 26.496-6.88 39.392-10.176l-22.88-91.904 55.264-13.76 22.656 90.88c15.104-4.064 29.76-7.84 44.096-11.424l-22.592-90.496 55.296-13.76 22.88 91.712c94.336-17.856 165.248-10.656 195.104 74.656 24.064 68.672-1.184 108.32-50.816 134.144 36.16 8.32 63.36 32.096 70.624 81.216zM615.648 334.144c-17.056-68.704-132.736-31.552-170.24-22.24l30.4 121.76c37.504-9.376 157.728-27.904 139.84-99.52zM632.768 512.352c-15.584-62.496-111.84-30.72-143.040-22.944l27.52 110.4c31.2-7.776 131.776-22.272 115.52-87.456z" />
<glyph unicode="&#xe943;" glyph-name="blk-white" d="M512-64c-282.784 0-512 229.216-512 512s229.216 512 512 512 512-229.216 512-512-229.216-512-512-512zM739.2 603.84c-1.504 93.248-108.832 117.12-108.832 117.12s60.224-40.512 61.76-122.528c1.504-82.016-30.88-114.016-30.88-114.016s79.456 26.208 77.952 119.424zM381.952 165.792v564.8l-109.952 5.408v-9.248s67.296-17.728 67.296-119.936v-308.48c0-120.736-67.296-127.68-67.296-127.68v-10.24zM557.696 160.032c47.808 0.352 121.248 33.856 134.816 125.184 13.536 91.328-21.44 133.312-39.552 148.736-18.080 15.392-69.28 33.12-69.28 33.12s33.856 17.344 49.312 42.4 27.52 70.88 16.192 119.040c-11.296 48.16-52.704 96.32-100.928 103.264-48.192 6.912-68.64-1.152-127.136-1.92v-563.52s88.736-6.72 136.576-6.304zM684.768 180.832s100.352 28.896 99.2 138.688c-1.088 109.792-99.2 134.464-99.2 134.464s47.584-43.328 49.856-135.52-49.824-137.664-49.824-137.664zM585.568 511.52c-35.168-46.752-122.752-34.432-122.752-34.432s-0.416 197.312 8.256 205.792c8.64 8.48 53.472 23.52 96-6.56 42.56-30.080 53.632-118.048 18.464-164.8zM592.064 427.52c32.896-14.624 74.56-64.448 54.24-144.832-20.32-80.416-82.080-82.72-114.464-81.44s-63.552 0.768-67.040 94.016-2.016 143.040-2.016 143.040 96.384 3.872 129.28-10.784z" />
<glyph unicode="&#xe944;" glyph-name="dai-white" d="M512-64c-282.784 0-512 229.216-512 512s229.216 512 512 512 512-229.216 512-512-229.216-512-512-512zM852.256 453.856l-346.112 346.144-346.144-346.144 346.144-127.872 346.112 127.872zM267.648 483.2l234.656 239.936s229.408-234.656 239.072-239.36c9.696-4.672-157.792 0-157.792 0l-77.44 79.2-78.336-79.776h-160.16zM506.144 301.632l-346.144 127.008 346.144-320.896 346.112 322.656-346.112-128.768z" />
<glyph unicode="&#xe945;" d="M512-64c-282.784 0-512 229.216-512 512s229.216 512 512 512 512-229.216 512-512-229.216-512-512-512zM767.808 440.992l-239.872 391.008-239.936-391.040 239.936-139.296 239.872 139.328zM768 396.288l-240.064-139.232-239.936 139.2 239.936-332.096 240.064 332.128z" />
<glyph unicode="&#xe946;" d="M527.936 832v-283.84l239.904-107.2z" />
<glyph unicode="&#xe947;" d="M527.936 832l-239.936-391.040 239.936 107.2z" />
<glyph unicode="&#xe948;" d="M527.936 257.024v-192.864l240.064 332.128z" />
<glyph unicode="&#xe949;" d="M527.936 64.16v192.896l-239.936 139.232z" />
<glyph unicode="&#xe94a;" d="M288 440.96l239.936-139.296v246.432z" />
<glyph unicode="&#xe94b;" glyph-name="vtc-white" d="M872 812.032c-3.064 2.947-6.315 5.975-9.614 8.951l-0.37 0.329-356.96-494.496-136.416 174.016h-222.016l-62.4-71.040h116.096l277.152-358.208c9.28-8.704 18.432-13.056 27.584-13.056 9.12 0 17.824 4.352 26.112 13.056l438.24 606.176c-4.291 8.918-7.438 14.937-10.706 20.88l1.266-2.512c40.291-71.286 64.033-156.537 64.033-247.334 0-0.279 0-0.558-0.001-0.837v0.043c0-282.784-229.216-512-512-512s-512 229.216-512 512 229.216 512 512 512c140.352 0 267.52-56.48 360-147.968z" />
<glyph unicode="&#xe94c;" glyph-name="usdt-white" d="M512-64c-282.784 0-512 229.216-512 512s229.216 512 512 512 512-229.216 512-512-229.216-512-512-512zM573.504 518.624v75.712h173.248v115.456h-471.712v-115.456h173.248v-75.68c-140.8-6.464-246.688-34.368-246.688-67.776s105.888-61.28 246.688-67.776v-242.624h125.216v242.688c140.576 6.464 246.208 34.336 246.208 67.712s-105.632 61.248-246.208 67.744zM573.504 403.744v0.064c-3.52-0.256-21.664-1.344-62.144-1.344-32.32 0-55.072 0.96-63.072 1.344v-0.096c-124.416 5.472-217.28 27.136-217.28 53.056 0 25.888 92.864 47.552 217.28 53.12v-84.608c8.128-0.576 31.424-1.952 63.616-1.952 38.624 0 57.984 1.6 61.6 1.92v84.576c124.16-5.536 216.8-27.2 216.8-53.056 0-25.92-92.64-47.52-216.8-53.024z" />
<glyph unicode="&#xe94d;" glyph-name="usdc-white" d="M512-64c-282.784 0-512 229.216-512 512s229.216 512 512 512 512-229.216 512-512-229.216-512-512-512zM504 80c207.659 0 376 168.341 376 376v0c0 207.68-168.32 376-376 376s-376-168.32-376-376 168.32-376 376-376zM481.6 595.52v23.68c0 12.46 10.1 22.56 22.56 22.56s22.56-10.1 22.56-22.56v0-22.080c36.96-2.748 67.14-28.81 76.032-63.412l0.128-0.588c0.208-0.885 0.327-1.901 0.327-2.945 0-6.289-4.32-11.569-10.154-13.035l-0.093-0.020h-15.040c-10.135 0.054-18.871 5.99-22.974 14.566l-0.066 0.154c-9.248 15.777-26.12 26.204-45.428 26.204-1.92 0-3.817-0.103-5.683-0.304l0.232 0.020c-32 0-51.2-19.84-51.2-37.76s15.040-28.48 47.040-36.48l32-7.040c55.36-11.84 78.72-35.2 78.72-75.84-0.713-45.419-37.434-82.028-82.829-82.56h-0.051v-27.2c0-12.46-10.1-22.56-22.56-22.56s-22.56 10.1-22.56 22.56v0 26.88c-40.319 0.633-73.959 28.485-83.391 65.957l-0.129 0.603c-0.127 0.634-0.2 1.362-0.2 2.107 0 5.464 3.913 10.015 9.090 11.002l0.070 0.011h18.88c8.583-0.066 15.977-5.091 19.463-12.349l0.057-0.131c10.835-17.724 30.081-29.374 52.048-29.374 1.955 0 3.888 0.092 5.795 0.273l-0.244-0.019c32 0 56.64 19.2 56.64 38.72s-14.080 31.040-48.32 39.040l-35.2 8.32c-50.24 10.56-73.92 35.84-73.92 74.56 1.824 42.678 35.785 76.862 78.201 79.032l0.199 0.008zM222.080 456c0.079 123.689 79.982 228.695 190.978 266.297l1.982 0.583c1.334 0.487 2.875 0.769 4.481 0.769 7.423 0 13.44-6.017 13.44-13.44 0-0.045 0-0.091-0.001-0.136v0.007-7.36c-0.022-12.378-7.598-22.981-18.363-27.447l-0.197-0.073c-87.137-35.855-147.366-120.094-147.366-218.4s60.229-182.545 145.8-217.828l1.566-0.572c10.989-4.643 18.56-15.33 18.56-27.787 0-0.019 0-0.038 0-0.056v0.003-6.72c0-7.953-6.447-14.4-14.4-14.4v0h-4.48c-112.477 38.469-191.921 143.226-192 266.55v0.010zM785.92 456c0-0.075 0-0.164 0-0.252 0-123.285-79.315-228.045-189.702-266.036l-1.978-0.592c-1.432-0.499-3.083-0.787-4.801-0.787-8.245 0-14.941 6.635-15.039 14.858v5.449c0.35 12.707 8.055 23.532 18.996 28.399l0.204 0.081c86.925 35.952 146.971 120.084 146.971 218.24s-60.046 182.288-145.409 217.666l-1.562 0.574c-11.37 4.903-19.242 15.899-19.519 28.765l-0.001 0.035v4.8c0 8.32 6.72 15.040 15.040 15.040h4.8c112.376-38.435 191.776-143.035 192-266.213v-0.027z" />
<glyph unicode="&#xe94e;" glyph-name="xmr-white" d="M512-64c-282.784 0-512 229.216-512 512s229.216 512 512 512 512-229.216 512-512-229.216-512-512-512zM511.040 792.48c-0.057 0-0.125 0-0.192 0-191.152 0-346.112-154.96-346.112-346.112 0-0.090 0-0.18 0-0.27v0.014c0-38.464 6.56-75.072 17.824-109.824h103.264v291.008l225.28-225.28 225.28 225.28v-291.008h103.232c11.191 32.761 17.715 70.507 17.856 109.757v0.067c0 191.488-154.88 346.368-346.368 346.368zM459.456 351.36l-98.56 98.56v-183.040h-145.504c60.992-99.52 170.816-166.144 295.68-166.144 124.832 0 235.584 66.624 295.68 166.144h-145.504v183.040l-97.6-98.56-51.648-51.68-52.576 51.648z" />
<glyph unicode="&#xe94f;" glyph-name="bch-white" d="M512-64c-282.784 0-512 229.216-512 512s229.216 512 512 512 512-229.216 512-512-229.216-512-512-512zM679.552 617.888c-24.864 63.104-87.104 68.8-159.616 54.72l-25.824 90.016-54.784-15.712 25.12-87.68c-14.4-4.096-29.024-8.608-43.584-13.12l-25.28 88.256-54.784-15.68 25.792-90.016c-11.808-3.648-23.36-7.2-34.752-10.464l-0.064 0.256-75.584-21.632 16.8-58.528s40.224 12.384 39.776 11.424c22.176 6.4 33.12-4.448 38.4-14.944l29.44-102.56c1.504 0.416 3.52 0.96 5.888 1.28l-5.792-1.664 41.184-143.68c1.024-7.264 0.096-19.584-15.392-24.064 0.864-0.416-39.84-11.392-39.84-11.392l7.872-68.576 71.328 20.48c13.248 3.776 26.368 7.296 39.232 10.88l26.112-91.040 54.72 15.68-25.792 90.080c29.484 7.444 44.153 11.617 58.757 15.944l-14.885-3.784 25.696-89.696 54.784 15.712-26.016 90.88c90.592 31.712 148.416 73.408 131.616 162.24-13.504 71.488-55.2 93.184-111.104 90.752 27.136 25.28 38.848 59.488 20.576 105.632zM658.72 401.248c19.52-68.064-99.2-93.728-136.32-104.416l-34.56 120.64c37.12 10.656 150.528 54.72 170.88-16.256zM584.416 564.128c17.728-61.92-81.504-82.56-112.416-91.424l-31.36 109.408c30.912 8.864 125.248 46.56 143.776-17.984z" />
<glyph unicode="&#xe950;" glyph-name="dash-white" d="M512-64c-282.784 0-512 229.216-512 512s229.216 512 512 512 512-229.216 512-512-229.216-512-512-512zM610.752 703.872h-232.832l-19.264-107.744 209.984-0.32c103.392 0 134.080-37.536 133.088-99.84-0.448-31.936-14.368-85.952-20.256-103.36-15.904-46.72-48.672-99.904-171.488-99.744l-204.096 0.128-19.264-107.872h232.224c81.888 0 116.768 9.568 153.6 26.56 81.728 37.696 130.4 118.432 149.952 223.808 28.992 156.8-7.168 268.384-211.68 268.384zM505.792 454.464c7.616 31.52 10.016 44.16 10.016 44.16h-238.272c-60.928 0-69.632-39.68-75.424-63.68-7.584-31.392-9.984-44.192-9.984-44.192h238.304c60.896 0 69.6 39.68 75.392 63.712z" />
<glyph unicode="&#xe951;" glyph-name="doge-white" d="M512-64c-282.784 0-512 229.216-512 512s229.216 512 512 512 512-229.216 512-512-229.216-512-512-512zM335.424 419.328v-227.328h209.568c38.72 0 72.224 6.72 100.544 20.064 28.32 13.408 51.424 31.68 69.376 54.88 17.92 23.168 31.264 50.304 40 81.376s13.088 64.32 13.088 99.68c0.005 0.711 0.008 1.553 0.008 2.394 0 34.619-4.793 68.119-13.751 99.872l0.623-2.586c-8.704 31.040-22.048 58.208-40 81.376-17.92 23.2-41.024 41.472-69.344 54.88-28.32 13.344-61.856 20.064-100.576 20.064h-209.568v-211.52h-47.392v-73.152h47.424zM423.936 492.448v138.4h87.072c34.464 0 62.656-4.64 84.608-13.984 21.952-9.312 39.168-22.208 51.68-38.72 12.284-16.333 21.204-35.908 25.329-57.194l0.143-0.886c4.48-22.24 6.72-46.24 6.72-72.064 0.005-0.692 0.007-1.51 0.007-2.328 0-24.671-2.449-48.769-7.117-72.066l0.39 2.33c-4.48-22.24-12.96-41.6-25.472-58.080-12.512-16.512-29.76-29.408-51.68-38.72-21.952-9.344-50.144-13.984-84.608-13.984h-87.072v154.176h138.048v73.12h-138.048z" />
<glyph unicode="&#xe952;" glyph-name="ltc-white" d="M512-64c-282.784 0-512 229.216-512 512s229.216 512 512 512 512-229.216 512-512-229.216-512-512-512zM333.664 345.152l-37.6-153.152h412l27.936 114.272h-247.104l27.136 111.456 45.664 18.272 21.76 88-45.12-18.272 48.608 198.272h-164.128l-66.592-269.728-46.208-18.56-22.016-88.288 45.664 17.728z" />
<glyph unicode="&#xe953;" glyph-name="btc-white" d="M512-64c-282.784 0-512 229.216-512 512s229.216 512 512 512 512-229.216 512-512-229.216-512-512-512zM742.048 511.36c10.048 67.072-41.056 103.136-110.88 127.2l22.656 90.88-55.296 13.76-22.080-88.48c-14.528 3.648-29.44 7.040-44.32 10.432l22.24 89.056-55.296 13.792-22.656-90.848c-12.032 2.752-23.872 5.44-35.328 8.32l0.064 0.288-76.288 19.040-14.72-59.072s41.056-9.408 40.192-9.984c22.4-5.6 26.432-20.416 25.76-32.192l-25.792-103.52c1.536-0.384 3.52-0.96 5.76-1.824l-5.856 1.44-36.16-145.024c-2.752-6.784-9.696-16.992-25.376-13.12 0.576-0.8-40.192 10.016-40.192 10.016l-27.456-63.296 72-17.952c13.376-3.36 26.496-6.88 39.392-10.176l-22.88-91.904 55.264-13.76 22.656 90.88c15.104-4.064 29.76-7.84 44.096-11.424l-22.592-90.496 55.296-13.76 22.88 91.712c94.336-17.856 165.248-10.656 195.104 74.656 24.064 68.672-1.184 108.32-50.816 134.144 36.16 8.32 63.36 32.096 70.624 81.216zM615.648 334.144c-17.056-68.704-132.736-31.552-170.24-22.24l30.4 121.76c37.504-9.376 157.728-27.904 139.84-99.52zM632.768 512.352c-15.584-62.496-111.84-30.72-143.040-22.944l27.52 110.4c31.2-7.776 131.776-22.272 115.52-87.456z" />
<glyph unicode="&#xe954;" d="M880.974 845.901l-319.799-237.519 59.139 140.133z" />
<glyph unicode="&#xe955;" d="M142.704 845.901l317.228-239.769-56.246 142.383z" />
<glyph unicode="&#xe956;" d="M765.911 295.332l-85.173-130.491 182.237-50.139 52.389 177.738z" />
<glyph unicode="&#xe957;" d="M108.957 292.439l52.068-177.738 182.237 50.139-85.173 130.491z" />
<glyph unicode="&#xe958;" d="M332.977 515.817l-50.782-76.816 180.952-8.035-6.428 194.451z" />
<glyph unicode="&#xe959;" d="M690.702 515.817l-125.348 111.849-4.178-196.701 180.63 8.035z" />
<glyph unicode="&#xe95a;" d="M343.262 164.841l108.635 53.032-93.851 73.281z" />
<glyph unicode="&#xe95b;" d="M571.782 217.873l108.957-53.032-15.106 126.313z" />
<glyph unicode="&#xe95c;" d="M680.738 164.841l-108.957 53.032 8.678-71.031-0.964-29.891z" />
<glyph unicode="&#xe95d;" d="M343.262 164.841l101.243-47.89-0.643 29.891 8.035 71.031z" />
<glyph unicode="&#xe95e;" d="M446.112 338.079l-90.637 26.677 63.96 29.248z" />
<glyph unicode="&#xe95f;" d="M577.567 338.079l26.677 55.925 64.281-29.248z" />
<glyph unicode="&#xe960;" d="M343.262 164.841l15.427 130.491-100.6-2.893z" />
<glyph unicode="&#xe961;" d="M665.311 295.332l15.427-130.491 85.173 127.598z" />
<glyph unicode="&#xe962;" d="M741.805 439.001l-180.63-8.035 16.713-92.886 26.677 55.925 64.281-29.248z" />
<glyph unicode="&#xe963;" d="M355.475 364.756l64.281 29.248 26.355-55.925 17.035 92.886-180.952 8.035z" />
<glyph unicode="&#xe964;" d="M282.195 439.001l75.852-147.847-2.571 73.602z" />
<glyph unicode="&#xe965;" d="M668.846 364.756l-3.214-73.602 76.173 147.847z" />
<glyph unicode="&#xe966;" d="M463.146 430.965l-17.035-92.886 21.213-109.599 4.821 144.311z" />
<glyph unicode="&#xe967;" d="M561.175 430.965l-8.678-57.853 3.857-144.633 21.534 109.599z" />
<glyph unicode="&#xe968;" d="M577.888 338.079l-21.534-109.599 15.427-10.606 93.851 73.281 3.214 73.602z" />
<glyph unicode="&#xe969;" d="M355.475 364.756l2.571-73.602 93.851-73.281 15.427 10.606-21.213 109.599z" />
<glyph unicode="&#xe96a;" d="M579.495 116.952l0.964 29.891-8.035 7.071h-121.17l-7.392-7.071 0.643-29.891-101.243 47.89 35.355-28.927 71.674-49.818h123.099l71.995 49.818 35.355 28.927z" />
<glyph unicode="&#xe96b;" d="M571.782 217.873l-15.427 10.606h-89.030l-15.427-10.606-8.035-71.031 7.392 7.071h121.17l8.035-7.071z" />
<glyph unicode="&#xe96c;" d="M894.473 592.954l27.32 131.134-40.819 121.813-309.193-229.484 118.92-100.6 168.095-49.175 37.283 43.39-16.070 11.571 25.712 23.463-19.927 15.427 25.712 19.606z" />
<glyph unicode="&#xe96d;" d="M102.207 724.088l27.32-131.134-17.356-12.856 25.712-19.606-19.606-15.427 25.712-23.463-16.070-11.571 36.962-43.39 168.095 49.175 118.92 100.6-309.193 229.484z" />
<glyph unicode="&#xe96e;" d="M858.797 466.642l-168.095 49.175 51.104-76.816-76.173-147.847 100.279 1.286h149.454z" />
<glyph unicode="&#xe96f;" d="M332.977 515.817l-168.095-49.175-55.925-174.202h149.132l99.957-1.286-75.852 147.847z" />
<glyph unicode="&#xe970;" d="M561.175 430.965l10.606 185.451 48.854 132.098h-216.949l48.211-132.098 11.249-185.451 3.857-58.496 0.321-143.99h89.030l0.643 143.99z" />
</font>
</defs>
</svg>
