<?xml version="1.0" encoding="UTF-8" standalone="no"?>
<!-- Created with Inkscape (http://www.inkscape.org/) -->

<svg
   xmlns:dc="http://purl.org/dc/elements/1.1/"
   xmlns:cc="http://creativecommons.org/ns#"
   xmlns:rdf="http://www.w3.org/1999/02/22-rdf-syntax-ns#"
   xmlns:svg="http://www.w3.org/2000/svg"
   xmlns="http://www.w3.org/2000/svg"
   xmlns:sodipodi="http://sodipodi.sourceforge.net/DTD/sodipodi-0.dtd"
   xmlns:inkscape="http://www.inkscape.org/namespaces/inkscape"
   width="367"
   height="140"
   viewBox="0 0 97.102081 37.041668"
   version="1.1"
   id="svg8"
   inkscape:version="0.92.3 (2405546, 2018-03-11)"
   sodipodi:docname="ethereum-wallet.svg">
  <defs
     id="defs2" />
  <sodipodi:namedview
     id="base"
     pagecolor="#ffffff"
     bordercolor="#666666"
     borderopacity="1.0"
     inkscape:pageopacity="0.0"
     inkscape:pageshadow="2"
     inkscape:zoom="1.4"
     inkscape:cx="194.03066"
     inkscape:cy="53.525768"
     inkscape:document-units="mm"
     inkscape:current-layer="layer1"
     showgrid="false"
     inkscape:window-width="1366"
     inkscape:window-height="719"
     inkscape:window-x="0"
     inkscape:window-y="24"
     inkscape:window-maximized="1"
     units="px" />
  <metadata
     id="metadata5">
    <rdf:RDF>
      <cc:Work
         rdf:about="">
        <dc:format>image/svg+xml</dc:format>
        <dc:type
           rdf:resource="http://purl.org/dc/dcmitype/StillImage" />
        <dc:title></dc:title>
      </cc:Work>
    </rdf:RDF>
  </metadata>
  <g
     inkscape:label="Layer 1"
     inkscape:groupmode="layer"
     id="layer1"
     transform="translate(0,-259.95832)">
    <path
       style="fill:#000000;stroke-width:0.09817583"
       d="m 29.899309,284.33025 v -11.78111 h 0.84051 0.84051 l -0.0656,-0.43746 c -0.166776,-1.11214 0.684576,-2.38032 1.745862,-2.60064 0.298954,-0.062 0.649957,-0.0861 0.780006,-0.0535 0.226353,0.0568 0.241644,0.0287 0.358004,-0.65803 0.524613,-3.09616 2.660896,-5.51713 5.714453,-6.47598 0.651768,-0.20466 0.917535,-0.22963 2.40185,-0.22568 1.53364,0.004 1.731295,0.0254 2.437274,0.26192 l 0.768284,0.25746 0.704354,-0.37561 c 0.893967,-0.47673 1.589247,-0.62744 2.64002,-0.5723 1.076423,0.0565 2.073258,0.50415 2.918989,1.31085 l 0.575189,0.54863 0.741634,-0.15319 c 1.067759,-0.22055 2.785556,-0.20123 3.753117,0.0422 1.037885,0.26113 2.397191,0.94723 3.193504,1.61191 1.09726,0.91588 2.118117,2.43975 2.580973,3.8527 l 0.165678,0.50576 0.608919,0.10625 c 1.369754,0.23902 2.842798,1.31133 3.450002,2.51144 0.151177,0.29879 0.335867,0.54326 0.410424,0.54326 0.114539,0 0.13556,1.82658 0.13556,11.78111 v 11.78109 H 48.749066 29.899309 Z m 36.128704,7.85406 v -2.35622 h -5.497849 -5.497843 v -5.49784 -5.49786 h 5.497843 5.497849 v -2.35622 -2.35621 H 48.749066 31.470124 v 3.14162 3.14163 h 3.363788 3.363796 l 1.387194,-1.39901 c 0.99579,-1.00426 1.419998,-1.50282 1.503457,-1.76696 0.239292,-0.75732 1.34561,-1.54647 2.168008,-1.54647 1.028277,0 2.154157,0.99257 2.310807,2.0372 0.209519,1.39715 -1.187787,2.82965 -2.574707,2.63954 -0.518591,-0.0711 -0.8792,-0.24718 -1.287884,-0.62895 l -0.30478,-0.2847 -1.257286,1.26008 -1.257287,1.26008 h -3.707555 -3.707551 v 0.78541 0.7854 h 7.160219 c 7.053614,0 7.16114,-0.003 7.222012,-0.19469 0.03399,-0.10707 0.259655,-0.39255 0.501485,-0.63438 1.317017,-1.31701 3.392092,-0.70346 3.883103,1.14814 0.399776,1.50756 -1.232063,3.1394 -2.739616,2.73962 -0.622915,-0.16518 -1.148273,-0.54183 -1.474471,-1.05712 l -0.268149,-0.42358 -7.142294,-0.004 -7.142289,-0.004 v 0.7854 0.78541 h 3.707551 3.707555 l 1.257287,1.26008 1.257286,1.26009 0.30478,-0.28471 c 0.953112,-0.89034 2.222592,-0.85678 3.162991,0.0836 1.084659,1.08465 0.901515,2.69616 -0.404736,3.56138 -0.915438,0.60636 -2.006725,0.47575 -2.819977,-0.3375 -0.241032,-0.24103 -0.490557,-0.60382 -0.554502,-0.80619 -0.08346,-0.26413 -0.507667,-0.76269 -1.503457,-1.76696 l -1.387194,-1.39901 h -3.363796 -3.363788 v 3.14162 3.14162 h 17.278942 17.278947 z m -22.187737,-0.98176 c 0.130902,-0.1309 0.196353,-0.32725 0.196353,-0.58905 0,-0.52361 -0.261804,-0.78541 -0.785408,-0.78541 -0.523604,0 -0.785404,0.2618 -0.785404,0.78541 0,0.2618 0.06545,0.45815 0.196349,0.58905 0.130902,0.1309 0.327255,0.19635 0.589055,0.19635 0.261804,0 0.458157,-0.0655 0.589055,-0.19635 z m 22.187737,-6.8723 v -3.92704 h -4.71244 -4.712438 v 3.92704 3.92702 h 4.712438 4.71244 z m -6.122871,2.25503 c -0.749453,-0.22451 -1.429031,-0.962 -1.648257,-1.7887 -0.399772,-1.50755 1.232063,-3.1394 2.739614,-2.73962 0.943331,0.25016 1.71659,1.06716 1.849617,1.95426 0.234154,1.56144 -1.437439,3.02448 -2.940974,2.57406 z m 1.214079,-1.66598 c 0.130899,-0.1309 0.196352,-0.32725 0.196352,-0.58905 0,-0.26181 -0.06545,-0.45816 -0.196352,-0.58906 -0.1309,-0.13091 -0.327253,-0.19636 -0.589057,-0.19636 -0.261799,0 -0.458152,0.0655 -0.589053,0.19636 -0.130901,0.1309 -0.196353,0.32725 -0.196353,0.58906 0,0.2618 0.06545,0.45815 0.196353,0.58905 0.130901,0.1309 0.327254,0.19635 0.589053,0.19635 0.261804,0 0.458157,-0.0655 0.589057,-0.19635 z m -12.566505,0 c 0.130902,-0.1309 0.19635,-0.32725 0.19635,-0.58905 0,-0.52361 -0.261801,-0.78542 -0.785404,-0.78542 -0.523606,0 -0.785407,0.26181 -0.785407,0.78542 0,0.2618 0.06545,0.45815 0.196352,0.58905 0.130903,0.1309 0.327251,0.19635 0.589055,0.19635 0.2618,0 0.458151,-0.0655 0.589054,-0.19635 z m -4.71244,-6.28325 c 0.130902,-0.13091 0.196353,-0.32726 0.196353,-0.58906 0,-0.52361 -0.261804,-0.78541 -0.785408,-0.78541 -0.523604,0 -0.785404,0.2618 -0.785404,0.78541 0,0.2618 0.06545,0.45815 0.196349,0.58906 0.130902,0.13089 0.327255,0.19634 0.589055,0.19634 0.261804,0 0.458157,-0.0655 0.589055,-0.19634 z m -9.332758,-6.20963 c -0.0034,-0.0675 -0.06056,-0.40988 -0.127172,-0.76086 -0.119957,-0.63201 -0.124435,-0.63843 -0.465516,-0.66746 -0.744951,-0.0634 -1.139145,0.69648 -0.670417,1.29236 0.175166,0.22269 0.277615,0.25868 0.736318,0.25868 0.364052,0 0.530925,-0.0388 0.526787,-0.12272 z m 5.231065,-0.19635 c -0.104873,-0.17549 -0.27068,-0.45935 -0.368461,-0.63081 -0.195719,-0.34319 -0.209317,-0.30586 0.382965,-1.05168 l 0.281637,-0.35466 -0.281637,-0.3521 c -0.628472,-0.78571 -0.71927,-0.47788 1.034214,-3.50636 0.869185,-1.50119 1.580338,-2.74926 1.580338,-2.77347 0,-0.0996 -0.881906,-0.0339 -1.427466,0.10634 -2.456784,0.63133 -4.450031,2.62359 -5.009071,5.00658 -0.196884,0.83925 -0.14645,2.58507 0.09706,3.35981 l 0.162004,0.51542 h 1.869548 1.869543 z m 2.048817,0.13919 c -0.05295,-0.0989 -0.173181,-0.24252 -0.267185,-0.31907 -0.151191,-0.12313 -0.149369,-0.10238 0.01581,0.17988 0.193574,0.33079 0.421437,0.45695 0.251377,0.13919 z m 1.608207,-0.13919 c 0.165178,-0.28226 0.167003,-0.30301 0.01581,-0.17988 -0.207262,0.16879 -0.394521,0.49895 -0.282991,0.49895 0.04426,0 0.16449,-0.14358 0.267184,-0.31907 z m 5.507859,-0.19635 c 0.24351,-0.77474 0.293946,-2.52056 0.09706,-3.35981 -0.559041,-2.38299 -2.552289,-4.37525 -5.009069,-5.00658 -0.545564,-0.1402 -1.42747,-0.20589 -1.42747,-0.10634 0,0.0242 0.711152,1.27228 1.580338,2.77347 1.753484,3.02848 1.662686,2.72065 1.034214,3.50636 l -0.281638,0.3521 0.281638,0.35466 c 0.592283,0.74582 0.578687,0.70849 0.382969,1.05168 -0.09778,0.17146 -0.263593,0.45532 -0.368461,0.63081 l -0.19068,0.31907 h 1.869544 1.869547 z m 3.281755,0.2209 c 0,-0.27817 -0.02182,-0.29453 -0.392702,-0.29453 h -0.392707 v -0.78541 -0.78541 h 0.392707 0.392702 v -1.07993 -1.07993 h -0.392702 -0.392707 v -0.78541 -0.78541 h 0.834495 0.834498 v -0.3927 -0.3927 h 0.785407 0.785404 v 0.3927 0.3927 h 0.392705 0.392702 v -0.3927 -0.3927 h 0.785407 0.785405 v 0.48023 c 0,0.42123 0.02816,0.4873 0.229079,0.53774 0.125989,0.0316 0.441614,0.24458 0.701382,0.47323 0.927423,0.81635 1.189735,1.98402 0.676893,3.01317 l -0.257986,0.51771 0.345347,0.36059 c 0.367653,0.3839 0.661507,0.89082 0.661507,1.14115 0,0.12854 0.174387,0.15213 1.124571,0.15213 h 1.124574 l 0.06705,-0.35741 c 0.03688,-0.19658 0.04249,-0.78196 0.01246,-1.30083 -0.09539,-1.6485 -0.680539,-2.96241 -1.843186,-4.13874 -1.243171,-1.25779 -2.826378,-1.95595 -4.608861,-2.0324 -1.740373,-0.0747 -3.148627,0.4083 -4.488781,1.53938 -0.739628,0.62424 -0.732189,0.59584 -0.426131,1.62665 0.412616,1.38967 0.460547,2.81944 0.145646,4.34428 l -0.06589,0.31907 h 0.895856 0.895851 z m 5.324489,-0.003 -0.320619,-0.29165 h -1.716529 -1.716528 v 0.29452 0.29453 l 2.03715,-0.003 2.037146,-0.003 -0.32062,-0.29165 z m 8.020023,0.1256 c -0.56044,-0.74285 -1.102042,-1.12006 -1.849218,-1.28795 l -0.401425,-0.0902 -9.29e-4,0.40681 c -7.14e-4,0.22375 -0.02845,0.57249 -0.06193,0.77497 l -0.06085,0.36816 h 1.252062 c 1.176374,0 1.244229,-0.0104 1.122447,-0.1718 z m -22.342746,-2.61785 0.654688,-0.82613 -0.657735,-1.13738 c -0.361751,-0.62557 -0.68491,-1.13739 -0.718123,-1.13739 -0.03321,0 -0.356372,0.51182 -0.718128,1.13739 l -0.657734,1.13738 0.654687,0.82613 c 0.360083,0.45437 0.68461,0.82613 0.721175,0.82613 0.03655,0 0.361091,-0.37176 0.72117,-0.82613 z m 13.314409,0.53667 c 0.574658,-0.11088 0.788968,-0.3804 0.788968,-0.99223 0,-0.35988 -0.05719,-0.54108 -0.236706,-0.74999 l -0.236707,-0.27545 -1.530458,-0.0315 -1.530459,-0.0315 v 1.08685 1.08684 l 1.153566,-0.004 c 0.634463,-0.002 1.350768,-0.0423 1.591796,-0.0888 z m -6.784195,-5.19406 c 0.25048,-0.20812 0.652567,-0.50176 0.89353,-0.65255 l 0.438114,-0.27417 -0.376222,-0.32523 c -0.696891,-0.6024 -1.934641,-0.83042 -2.933352,-0.54034 l -0.469825,0.13645 0.720717,0.6641 c 0.396394,0.36525 0.82871,0.82265 0.960706,1.01644 0.131991,0.19379 0.255947,0.35264 0.27545,0.35301 0.01951,4.1e-4 0.240404,-0.1696 0.490882,-0.37771 z"
       id="path3778"
       inkscape:connector-curvature="0" />
  </g>
</svg>
