<?xml version="1.0" encoding="UTF-8" standalone="no"?>
<svg
   xmlns:dc="http://purl.org/dc/elements/1.1/"
   xmlns:cc="http://creativecommons.org/ns#"
   xmlns:rdf="http://www.w3.org/1999/02/22-rdf-syntax-ns#"
   xmlns:svg="http://www.w3.org/2000/svg"
   xmlns="http://www.w3.org/2000/svg"
   xmlns:sodipodi="http://sodipodi.sourceforge.net/DTD/sodipodi-0.dtd"
   xmlns:inkscape="http://www.inkscape.org/namespaces/inkscape"
   width="367"
   height="140"
   viewBox="0 0 367 140"
   version="1.1"
   id="svg147"
   sodipodi:docname="metamask.svg"
   inkscape:version="0.92.3 (2405546, 2018-03-11)">
  <metadata
     id="metadata151">
    <rdf:RDF>
      <cc:Work
         rdf:about="">
        <dc:format>image/svg+xml</dc:format>
        <dc:type
           rdf:resource="http://purl.org/dc/dcmitype/StillImage" />
        <dc:title>metamask</dc:title>
      </cc:Work>
    </rdf:RDF>
  </metadata>
  <sodipodi:namedview
     pagecolor="#ffffff"
     bordercolor="#666666"
     borderopacity="1"
     objecttolerance="10"
     gridtolerance="10"
     guidetolerance="10"
     inkscape:pageopacity="0"
     inkscape:pageshadow="2"
     inkscape:window-width="1366"
     inkscape:window-height="719"
     id="namedview149"
     showgrid="false"
     inkscape:zoom="1.0083215"
     inkscape:cx="197.52182"
     inkscape:cy="130.58241"
     inkscape:window-x="0"
     inkscape:window-y="24"
     inkscape:window-maximized="1"
     inkscape:current-layer="svg147" />
  <!-- Generator: Sketch 48.1 (47250) - http://www.bohemiancoding.com/sketch -->
  <title
     id="title2">metamask</title>
  <desc
     id="desc4">Created with Sketch.</desc>
  <defs
     id="defs6" />
  <g
     id="Page-1"
     style="fill:none;fill-rule:evenodd;stroke:none;stroke-width:1"
     transform="matrix(0.40364086,0,0,0.40364086,124.02667,2.8064239)">
    <g
       id="metamask"
       style="fill-rule:nonzero">
      <g
         id="Shape">
        <polygon
           points="280.76349,294 243,283.67879 300,229 "
           id="polygon8"
           style="fill:#bbbbbb;stroke:#bbbbbb" />
        <polygon
           points="279.42324,233.83429 300,229 243,284 "
           id="polygon10"
           style="fill:#bbbbbb;stroke:#bbbbbb" />
        <path
           d="M 272,179.71649 300,229.15184 279.64345,234 Z m 0,0 L 290.01671,167 300,229.15184 Z"
           id="path12"
           inkscape:connector-curvature="0"
           style="fill:#dddddd" />
        <path
           d="M 249,142.56098 301,121 298.41566,132.81098 Z M 296.77108,147 249,142.56098 l 49.41566,-9.75 z"
           id="path14"
           inkscape:connector-curvature="0"
           style="fill:#000000;stroke:#000000" />
        <path
           d="M 296.85156,146.86255 290.6891,167 249,142.49828 Z M 306.89367,125.97938 298,132.77663 300.62046,121 Z M 296,147.14777 297.66756,133 l 7.0673,5.8488 z"
           id="path16"
           inkscape:connector-curvature="0"
           style="fill:#000000;stroke:#000000" />
        <path
           d="m 290.50177,167 6.24911,-20.47827 6.24912,5.14924 z m 0.49066,0.10791 -55.19971,-18.12451 13.18506,-7.4292 z"
           id="path18"
           inkscape:connector-curvature="0"
           style="fill:#000000;stroke:#000000" />
        <polygon
           points="249,142.45244 236,149 261.96338,80.312988 "
           id="polygon20"
           style="fill:#000000;stroke:#000000" />
        <polygon
           points="248.36719,143.22217 261.62451,80.511719 301,121.35173 "
           id="polygon22"
           style="fill:#000000;stroke:#000000" />
        <polygon
           points="317,75 300.99805,121.375 262,81.269165 "
           id="polygon24"
           style="fill:#000000;stroke:#000000" />
        <polygon
           points="271.8955,180 235.29761,148.68066 290.68164,166.88501 "
           id="polygon26"
           style="fill:#dddddd" />
        <polygon
           points="317,75.166016 261.74805,81.559082 313.88281,31.113281 "
           id="polygon28"
           style="fill:#000000;stroke:#000000" />
        <polygon
           points="204.52612,111.58301 203,56.739821 314,31 "
           id="polygon30"
           style="fill:#bbbbbb;stroke:#bbbbbb" />
        <polygon
           points="203.57443,56.431373 205.11401,110.8042 122,50 "
           id="polygon32"
           style="fill:#dddddd" />
        <polygon
           points="205,109.87239 262,81 236.10526,149 "
           id="polygon34"
           style="fill:#000000;stroke:#000000" />
        <polygon
           points="272.70215,180.19287 220.70508,185.54688 235.67341,149 "
           id="polygon36"
           style="fill:#bbbbbb;stroke:#bbbbbb" />
        <polygon
           points="205,110 236,148.99371 220.5,186.56006 "
           id="polygon38"
           style="fill:#bbbbbb;stroke:#bbbbbb" />
        <polygon
           points="205,111 314,31 261.82166,81.923535 "
           id="polygon40"
           style="fill:#000000;stroke:#000000" />
        <polygon
           points="148,310 113,278 122.2809,283.05679 "
           id="polygon42"
           style="fill:#c0ad9e" />
        <polygon
           points="255.07792,237.47551 279.552,234.01685 243,284 "
           id="polygon44"
           style="fill:#999999;stroke:#999999" />
        <polygon
           points="63,106 23.803887,147.3916 18,153 "
           id="polygon46"
           style="fill:#e2761b" />
        <path
           d="m 279.63892,234.05273 -24.74659,3.73926 17.35792,-57.33978 z M 204.87487,110.55579 161.3023,109.13095 122,50 Z"
           id="path48"
           inkscape:connector-curvature="0"
           style="fill:#dddddd" />
        <polygon
           points="255.03589,238.40308 253.43066,209.20154 272.86035,178.46631 "
           id="polygon50"
           style="fill:#aaaaaa;stroke:#aaaaaa" />
        <polygon
           points="272,180 254.07465,209 221,185.53495 "
           id="polygon52"
           style="fill:#999999;stroke:#999999" />
        <polygon
           points="205.04053,109.76245 221,186 161,109 "
           id="polygon54"
           style="fill:#dddddd" />
        <path
           d="M 162.6665,110.81201 43.87793,0 122.68652,49.73698 Z M 122.60547,298.88379 20.408203,331 0,252.22754 Z"
           id="path56"
           inkscape:connector-curvature="0"
           style="fill:#bbbbbb;stroke:#bbbbbb" />
        <polygon
           points="71.626533,142 104,149.44125 33,172 "
           id="polygon58"
           style="fill:#000000;stroke:#000000" />
        <polygon
           points="72,142.48749 89.134474,71 104,150 "
           id="polygon60"
           style="fill:#000000;stroke:#000000" />
        <polygon
           points="72,142 33.410214,172 24,147.16971 "
           id="polygon62"
           style="fill:#000000;stroke:#000000" />
        <polygon
           points="234.05755,198.87375 221,185 254,209 "
           id="polygon64"
           style="fill:#999999;stroke:#999999" />
        <polygon
           points="19.736328,127.63013 72.623047,142.03516 24.025391,147.55908 "
           id="polygon66"
           style="fill:#000000;stroke:#000000" />
        <polygon
           points="233.89087,198.6189 254.0188,208.94287 229.50464,222.02832 "
           id="polygon68"
           style="fill:#000000" />
        <polygon
           points="230,221.54084 253.67601,209 255,237 "
           id="polygon70"
           style="fill:#dddddd" />
        <path
           d="M 72.078308,142.37225 20.183451,129.75576 16,114.65165 Z M 89.446289,70.630127 72.072144,142.39355 16,114.65165 Z M 89,71 161,109.03704 103.77354,150 Z"
           id="path72"
           inkscape:connector-curvature="0"
           style="fill:#000000;stroke:#000000" />
        <path
           d="M 102.93945,149.79053 161.44678,108.11865 187,187 Z M 187,187 l -79.78565,-2.01123 -3.9082,-35.15576 z"
           id="path74"
           inkscape:connector-curvature="0"
           style="fill:#bbbbbb;stroke:#bbbbbb" />
        <path
           d="m 32.071289,171.77832 71.845211,-22.4751 3.51003,36.03721 z M 221,185.81459 186.50966,187 161.01679,109 Z"
           id="path76"
           inkscape:connector-curvature="0"
           style="fill:#dddddd" />
        <polygon
           points="229.90303,221 221,185 234,198.61739 "
           id="polygon78"
           style="fill:#999999;stroke:#999999" />
        <polygon
           points="161,109 88.697998,71.200928 44,0 "
           id="polygon80"
           style="fill:#000000;stroke:#000000" />
        <polygon
           points="98.902832,247.6875 122.92188,299.43164 0,252.46826 "
           id="polygon82"
           style="fill:#bbbbbb;stroke:#bbbbbb" />
        <polygon
           points="99,248.38381 148,246 122.54546,299 "
           id="polygon84"
           style="fill:#999999;stroke:#999999" />
        <path
           d="m 230.67271,221.51412 25.34952,15.50283 9.30809,30.51967 z M 108.11056,184.65537 0,252.59887 33.641416,172 Z M 99.028956,248.48588 0,252.59887 108.11056,184.65537 Z m 122.720094,-63.35594 6.58005,24.22162 -32.12744,1.83814 z m -25.60623,26.18036 -8.90386,-24.99392 34.51009,-1.18644 z"
           id="path86"
           inkscape:connector-curvature="0"
           style="fill:#bbbbbb;stroke:#bbbbbb" />
        <polygon
           points="122,299 214,315 148.45392,309.72081 "
           id="polygon88"
           style="fill:#fbfbfb" />
        <polygon
           points="18,152.59937 24.121582,146.5188 33.540527,171.77637 "
           id="polygon90"
           style="fill:#000000;stroke:#000000" />
        <polygon
           points="214.44873,315.7168 122,299 225.33447,302.7417 "
           id="polygon92"
           style="fill:#ffffff" />
        <polygon
           points="122,299 147.26316,246 230.49756,275.18213 "
           id="polygon94"
           style="fill:#bbbbbb;stroke:#bbbbbb" />
        <polygon
           points="225.02632,303 122,299.01117 224.42559,276.23933 230,275 "
           id="polygon96"
           style="fill:#ffffff" />
        <path
           d="M 16.536711,114.89806 13.111816,53.687988 89.786133,70.81543 Z m 7.636141,32.25868 -10.544103,-9.84756 7.073423,-7.28559 z"
           id="path98"
           inkscape:connector-curvature="0"
           style="fill:#000000;stroke:#000000" />
        <polygon
           points="186.87939,185.94385 184.42857,225 169,202.54546 "
           id="polygon100"
           style="fill:#999999;stroke:#999999" />
        <polygon
           points="169.39282,203.09497 143,216 186,187 "
           id="polygon102"
           style="fill:#999999;stroke:#999999" />
        <path
           d="M 264.22289,266.47635 230,222 Z"
           id="path104"
           inkscape:connector-curvature="0"
           style="fill:#bbbbbb;stroke:#bbbbbb" />
        <polygon
           points="108,185 187,186.67783 143.63673,216 "
           id="polygon106"
           style="fill:#999999;stroke:#999999" />
        <polygon
           points="186.96021,185.62573 196.30298,211.10986 184,225 "
           id="polygon108"
           style="fill:#aaaaaa;stroke:#aaaaaa" />
        <polygon
           points="16.649254,114 21,129 10,119.96859 "
           id="polygon110"
           style="fill:#000000;stroke:#000000" />
        <polygon
           points="142.47778,216.03564 168.80309,202 185.06543,225.88379 "
           id="polygon112"
           style="fill:#000000" />
        <polygon
           points="13,53.785475 44.044467,0 89,71 "
           id="polygon114"
           style="fill:#000000;stroke:#000000" />
        <polygon
           points="219.32324,326.84766 148.1499,309.33838 214.66162,314.6084 "
           id="polygon116"
           style="fill:#fbfbfb" />
        <polygon
           points="143,216 184,225.32391 146.87838,247 "
           id="polygon118"
           style="fill:#dddddd" />
        <polygon
           points="144.08782,215.46075 147.28662,246.4292 108,185 "
           id="polygon120"
           style="fill:#aaaaaa;stroke:#aaaaaa" />
        <path
           d="M 196.12781,211.06641 228.07605,209.10832 265,267 Z M 108.07319,185 l 39.52757,61.61896 -48.855643,1.9787 z"
           id="path122"
           inkscape:connector-curvature="0"
           style="fill:#dddddd" />
        <polygon
           points="235,270 183.40723,225.09375 196.21793,211 "
           id="polygon124"
           style="fill:#aaaaaa;stroke:#aaaaaa" />
        <polygon
           points="235.48682,270.00586 228.9585,275.54932 183.70923,224.86328 "
           id="polygon126"
           style="fill:#bbbbbb;stroke:#bbbbbb" />
        <path
           d="M 229.40323,275 147,246.55556 183.87702,225.0642 Z m 35.66202,-7.96155 -30.05451,3.34033 -39.85547,-61.03943 z"
           id="path128"
           inkscape:connector-curvature="0"
           style="fill:#dddddd" />
        <path
           d="M 272.00824,294.41068 259.35695,320.36296 218.34605,327 Z M 219.55719,327.28271 214,315.14815 l 11.11438,-12.2043 z"
           id="path130"
           inkscape:connector-curvature="0"
           style="fill:#fbfbfb" />
        <path
           d="M 225.05151,302.96887 232.8092,299.89844 219,327 Z M 219,327 l 13.71069,-27.14954 39.32099,-5.43487 z"
           id="path132"
           inkscape:connector-curvature="0"
           style="fill:#fbfbfb" />
        <polygon
           points="274.98291,272.75049 245,276 265.13369,267 "
           id="polygon134"
           style="fill:#000000" />
        <path
           d="M 244.53471,276.54545 235,270.34091 l 30.13709,-3.29147 z m -3.38837,4.69319 35.85366,-4.375 -4.96387,17.61048 z"
           id="path136"
           inkscape:connector-curvature="0"
           style="fill:#000000" />
        <path
           d="m 272.06626,294.41527 -39.39156,5.51313 8.69277,-19.13842 z M 232.85864,299.85632 225,303 l 4.64389,-28.00327 z m -3.21202,-24.8647 5.61242,-4.99162 9.4759,6.1432 z m 45.17357,-2.37944 2.18921,4.28302 -36.51758,4.45978 z"
           id="path138"
           inkscape:connector-curvature="0"
           style="fill:#000000" />
        <path
           d="m 241.28003,281.16687 2.98706,-5.354 30.60913,-3.16297 z m -11.63828,-6.17993 11.76855,6.10528 L 232.73535,300 Z"
           id="path140"
           inkscape:connector-curvature="0"
           style="fill:#000000" />
        <polygon
           points="241.34656,281.34656 229.65329,274.99649 244.55322,276.00183 "
           id="polygon142"
           style="fill:#000000" />
      </g>
    </g>
  </g>
</svg>
